<?xml version="1.0" encoding="UTF-8" standalone="no"?>
<!-- Generator: Adobe Illustrator 19.2.0, SVG Export Plug-In . SVG Version: 6.00 Build 0)  -->

<svg
   version="1.1"
   id="Layer_1"
   x="0px"
   y="0px"
   viewBox="0 0 25 25"
   style="enable-background:new 0 0 25 25;"
   xml:space="preserve"
   sodipodi:docname="death.svg"
   inkscape:version="1.2.2 (b0a8486541, 2022-12-01)"
   xmlns:inkscape="http://www.inkscape.org/namespaces/inkscape"
   xmlns:sodipodi="http://sodipodi.sourceforge.net/DTD/sodipodi-0.dtd"
   xmlns="http://www.w3.org/2000/svg"
   xmlns:svg="http://www.w3.org/2000/svg"><defs
   id="defs5114" /><sodipodi:namedview
   id="namedview5112"
   pagecolor="#ffffff"
   bordercolor="#000000"
   borderopacity="0.25"
   inkscape:showpageshadow="2"
   inkscape:pageopacity="0.0"
   inkscape:pagecheckerboard="0"
   inkscape:deskcolor="#d1d1d1"
   showgrid="false"
   inkscape:zoom="19.16"
   inkscape:cx="2.1920668"
   inkscape:cy="12.526096"
   inkscape:window-width="1280"
   inkscape:window-height="651"
   inkscape:window-x="0"
   inkscape:window-y="32"
   inkscape:window-maximized="1"
   inkscape:current-layer="Layer_1" />
<style
   type="text/css"
   id="style5101">
	.st0{fill:#4D4D4D;}
	.st1{fill:#FFFFFF;}
</style>
<title
   id="title5103">death</title>
<circle
   class="st0"
   cx="12.5"
   cy="12.5"
   r="12.5"
   id="circle5105" />
<path
   class="st1"
   d="M19.8,19.7c-0.2-0.1-0.3-0.3-0.5-0.5c0-0.2,0.2-0.5,0.2-0.7c0-0.1-0.2-0.2-0.3-0.3C19.1,18.1,19,18,18.9,18  s-0.3,0.1-0.4,0.2c-0.2,0.1-0.4,0.1-0.6,0.1c-0.6-0.1-1.1-0.2-1.7-0.4c-0.6-0.1-1.7-0.4-2.6-0.7c0.6-0.2,1.1-0.5,1.7-0.7  c0.8-0.2,1.6-0.4,2.4-0.5c0.7-0.1,1.2,0,1.5-0.1c0.2,0,0.4-0.2,0.4-0.4s-0.1-0.4-0.2-0.6c-0.1-0.1-0.2-0.1-0.3-0.2  c0-0.1,0.1-0.3,0.1-0.5s-0.2-0.3-0.4-0.3c-0.1,0-0.3,0.1-0.4,0.1s-0.2,0-0.4,0c-0.2,0.1-0.3,0.2-0.4,0.4s-0.2,0.4-0.4,0.6  c-0.4,0.2-0.9,0.3-1.4,0.5c-0.6,0.2-1.6,0.7-2.5,1l-1.2,0.4c-0.8-0.3-1.7-0.7-2.5-1.1c-1-0.5-2-0.9-2.2-1c-0.1-0.1-0.2-0.1-0.2-0.2  c-0.1-0.1-0.1-0.1-0.1-0.2v-0.1c-0.1-0.1-0.2-0.2-0.3-0.2c-0.2,0-0.4,0.1-0.5,0.3c-0.1,0-0.2,0.1-0.2,0.2C6,14.7,6,14.9,6,15  c-0.1,0-0.2,0.1-0.3,0.1c-0.1,0.2-0.1,0.3-0.1,0.5s0,0.5,0,0.7c0.2,0.2,0.4,0.2,0.7,0.2c0.4,0,0.8,0,1.1,0C8,16.3,8.5,16.4,9,16.6  l1.5,0.6l-1.1,0.4c-0.9,0.3-2.3,0.8-2.6,0.8c-0.2,0.1-0.5,0-0.7-0.2C6,18.1,5.9,18,5.8,18c-0.2,0-0.3,0.1-0.4,0.2  c-0.1,0-0.1,0-0.2,0.1c-0.1,0.2-0.1,0.4-0.1,0.6c0.1,0.1,0.2,0.3,0.3,0.4c0.1,0.1,0,0.5,0,0.7s0.1,0.4,0.3,0.4  c0.1,0.1,0.3,0.1,0.4,0.1c0.2,0.1,0.4,0,0.5-0.1c0.3-0.3,0.6-0.5,0.9-0.9c0.1-0.1,0.1-0.2,0.2-0.3c0.5-0.2,1.1-0.4,1.6-0.6l2.6-0.9  H12l2.9,1.1c0.6,0.2,1.6,0.4,2.3,0.7c0.6,0.4,1.2,0.7,1.9,1c0.2,0,0.4-0.1,0.6-0.2C19.9,20.2,19.9,19.9,19.8,19.7z"
   id="path5107" />
<path
   class="st1"
   d="M7.8,9.9C7.5,9.1,7.4,8.3,7.4,7.4c0.1-1,0.5-2,1.1-2.8C8.7,4.4,9,4.2,9.3,4.1c0.5-0.4,1.1-0.7,1.7-0.9  C11.7,3,12.3,3,13,3c0.5,0,0.9,0.1,1.4,0.3c0.2,0.1,0.3,0.1,0.5,0.2c0.4,0.3,0.8,0.6,1.1,1c0.2,0.3,0.4,0.6,0.5,0.9  c0.5,0.9,0.8,2,0.8,3.1c0,0.3,0,0.5-0.1,0.7l0,0l-0.2,1h-0.1c-0.3-0.1-0.5-0.4-0.5-0.7V9.4c0,0,0-0.1,0-0.2c-0.2,0.3-0.2,0.6,0,0.9  c0.1,0.1,0.3,0.2,0.5,0.2c0.1,0,0.1,0.1,0.2,0.2c0.1,0.2,0.1,0.4,0,0.6c-0.1,0.2-0.1,0.3,0,0.5l0,0v0.1c0,0.2,0.1,0.3,0.1,0.5  c-0.1,0.3-0.2,0.6-0.4,0.9c-0.1,0.1-0.1,0.1-0.1,0.2c0,0.1-0.1,0.2-0.1,0.3s0,0.2,0,0.4c-0.3,0.4-0.8,0.5-1.2,0.4  C15.1,14,14.9,14,14.7,14c0,0,0,0-0.1,0.1c-0.1,0.2-0.1,0.4,0,0.7c0.1,0.2,0,0.3-0.1,0.4c0,0.1-0.1,0.1-0.2,0.1  c-0.3,0-0.2,0-0.2,0.1s-0.1,0.2-0.2,0.2h-0.1c-0.1,0-0.1,0-0.2-0.2s-0.1-0.1-0.1,0s0.2,0.3-0.1,0.4c-0.1,0-0.2,0-0.2-0.1  c-0.3-0.3-0.1,0.1-0.3,0.1c-0.4,0-0.5,0.1-0.5,0v-0.1c-0.1,0-0.1,0-0.2,0v0.1c0,0,0,0-0.1,0s-0.1,0-0.2,0.1c-0.2,0-0.3,0-0.4-0.2  c-0.1-0.4-0.1,0-0.2,0c-0.1,0-0.3,0-0.4-0.1c-0.4-0.2-0.1-0.2-0.2-0.2s0,0.1-0.2,0c-0.1,0-0.1-0.1-0.1-0.2c-0.3-0.3-0.2-0.2-0.4-0.3  c-0.4-0.1,0.4-0.9-0.1-1.3l0,0c-0.1,0-0.3,0-0.4,0.1c-0.6,0.1-1.2,0-1.6-0.4c-0.1-0.1-0.2-0.2-0.2-0.4c-0.1-0.3-0.1-0.7,0-1.1  c0-0.1,0-0.2,0-0.3c0-0.2,0-0.3-0.1-0.5c0-0.1,0-0.2,0-0.2c-0.1-0.2-0.1-0.4,0-0.6l0,0l0,0c0-0.1,0.1-0.1,0.2-0.1l0,0  C7.9,10.1,7.9,10,8,10h0.1c0.2,0,0.3-0.1,0.5-0.2C9,9.9,9.1,9.5,9,9.2c0,0,0-0.1-0.1-0.1C8.8,9.3,8.8,9.5,8.6,9.6  c-0.1,0.3-0.4,0.5-0.7,0.6c0,0,0,0,0-0.1l0,0C7.9,10.1,7.8,10,7.8,9.9z M13.2,11.6c0.1,0.1,0.1,0.2,0.2,0.2c0.1,0.1,0.3,0.2,0.5,0.3  s0.3,0.2,0.5,0.2c0.1,0,0.3,0.1,0.4,0.1c0.1,0,0.3,0,0.4,0c0.1,0,0.3-0.1,0.4-0.1l0.3-0.1c0.1,0,0.1-0.1,0.2-0.1  c0.1-0.1,0.1-0.2,0.1-0.3s0.1-0.3,0-0.4c0-0.2-0.1-0.3-0.1-0.5c-0.1-0.2-0.2-0.3-0.3-0.4c-0.1-0.1-0.2-0.2-0.3-0.2  c-0.2,0-0.3-0.1-0.5-0.1s-0.4,0-0.6,0l0,0c-0.2,0-0.3,0-0.5,0.1c-0.1,0-0.2,0.1-0.3,0.1c-0.1,0.1-0.1,0.1-0.2,0.2  c0,0.1-0.1,0.2-0.1,0.3s-0.1,0.3-0.1,0.4C13.2,11.4,13.2,11.5,13.2,11.6z M12.4,12.7c0,0.4,0,0.8,0.1,1.2c0,0,0,0.1,0.1,0.1l0,0  c0.1-0.1,0.2-0.2,0.3-0.3c-0.1-0.5-0.2-1-0.4-1.4C12.4,12.4,12.4,12.6,12.4,12.7L12.4,12.7z M11.8,13.7c0,0.1,0.1,0.2,0.2,0.3l0,0  c0,0,0-0.1,0.1-0.1c0.1-0.4,0.2-0.8,0.1-1.2c0-0.1,0-0.2,0-0.4C12,12.7,11.8,13.2,11.8,13.7L11.8,13.7z M9.2,10.4  c-0.1,0.1-0.3,0.2-0.4,0.3c-0.1,0.1-0.2,0.2-0.2,0.3s-0.1,0.2-0.1,0.3s0,0.2,0,0.3s0.1,0.2,0.1,0.3c0.1,0.1,0.1,0.2,0.2,0.3  c0.1,0.1,0.2,0.2,0.4,0.2c0.1,0,0.3,0,0.4,0c0.1,0,0.2,0,0.4,0c0.2-0.1,0.3-0.1,0.4-0.2L11,12c0.1-0.1,0.2-0.1,0.4-0.2  c0.1-0.1,0.2-0.1,0.2-0.2c0-0.1,0.1-0.2,0.1-0.2c0-0.1,0-0.2-0.1-0.2c0-0.1-0.1-0.2-0.1-0.2c0-0.1-0.1-0.2-0.1-0.2  c-0.1-0.1-0.1-0.1-0.2-0.2c-0.1-0.1-0.2-0.1-0.2-0.1l-0.3-0.1l-0.3-0.1c-0.1,0-0.2,0-0.3,0l-0.4,0.1C9.5,10.3,9.4,10.4,9.2,10.4  L9.2,10.4z"
   id="path5109" />
<path
   style="fill:#9ad6eb;stroke-width:0.0521921;fill-opacity:1"
   d="M 11.743215,24.940544 C 8.3204697,24.760029 4.9409959,23.011084 2.7815721,20.302714 1.3781869,18.542575 0.49787662,16.524844 0.15155314,14.27453 c -0.13476568,-0.875669 -0.13476568,-2.673391 0,-3.54906 C 0.3587409,9.3792213 0.71870564,8.2247594 1.3069817,7.019833 2.9023469,3.7521538 5.8957991,1.3194316 9.425547,0.42202783 10.489672,0.15148462 11.355061,0.04550078 12.5,0.04550078 c 2.042013,0 3.872664,0.43982406 5.692582,1.36767422 3.173262,1.617826 5.556246,4.6250165 6.407403,8.0857812 0.275599,1.1205698 0.345263,1.7260908 0.345263,3.0010438 0,1.274953 -0.06966,1.880474 -0.345263,3.001044 -0.851489,3.462114 -3.237087,6.469458 -6.41866,8.09152 -2.010345,1.024935 -4.133703,1.469514 -6.43811,1.34798 z m -4.8729118,-4.75159 c 0.2338852,-0.206097 0.5217427,-0.508119 0.6396843,-0.671161 l 0.2144384,-0.29644 0.782881,-0.292623 c 1.2173987,-0.455038 3.3300901,-1.183265 3.4330671,-1.18335 0.05103,-4.3e-5 0.743877,0.246095 1.539666,0.546972 0.79579,0.300877 1.896148,0.674726 2.445241,0.830774 1.018502,0.289452 1.166792,0.348351 1.715638,0.681428 0.478582,0.290436 1.374387,0.706928 1.520485,0.706928 0.07167,0 0.244708,-0.04921 0.384527,-0.109361 0.189433,-0.08149 0.268234,-0.149571 0.309221,-0.267147 0.0737,-0.211411 0.01866,-0.400713 -0.160267,-0.551274 -0.08124,-0.06836 -0.196938,-0.193425 -0.257109,-0.277928 l -0.109402,-0.153641 0.107619,-0.318678 c 0.06157,-0.182325 0.09007,-0.350041 0.0666,-0.39198 -0.02256,-0.04032 -0.154448,-0.167032 -0.293079,-0.28159 -0.277026,-0.228922 -0.303186,-0.229528 -0.707008,-0.0164 -0.137594,0.07262 -0.323883,0.123738 -0.450935,0.123738 -0.24271,0 -1.00138,-0.147694 -1.588314,-0.309206 -0.213453,-0.05874 -0.681678,-0.178595 -1.040498,-0.266348 -0.358821,-0.08775 -0.892193,-0.232454 -1.185272,-0.321557 l -0.532871,-0.162005 0.585063,-0.256557 c 0.907963,-0.398152 1.046659,-0.444437 1.920938,-0.64105 1.030796,-0.231812 1.769244,-0.337468 2.369762,-0.339063 0.757815,-0.002 1.028385,-0.12842 1.027989,-0.48027 -3.13e-4,-0.267249 -0.159115,-0.605975 -0.331995,-0.708098 -0.113074,-0.06679 -0.145838,-0.118133 -0.124577,-0.195201 0.09744,-0.353203 0.09215,-0.484845 -0.02415,-0.601143 -0.102905,-0.102905 -0.148127,-0.112122 -0.384144,-0.07829 -0.147129,0.02109 -0.405507,0.05452 -0.574172,0.07429 -0.347227,0.0407 -0.468584,0.145287 -0.724755,0.624595 -0.180238,0.337233 -0.319781,0.42202 -1.134552,0.689359 -0.358821,0.117734 -1.0869,0.395882 -1.617954,0.618106 -0.531054,0.222225 -1.330247,0.527493 -1.775982,0.678374 L 12.105658,16.867486 11.611285,16.67285 C 11.339378,16.565797 10.670668,16.267922 10.125261,16.010902 9.5798539,15.753883 8.7400626,15.366261 8.2590585,15.149521 7.359369,14.744122 7.1242171,14.583582 7.1242171,14.374757 c 0,-0.152496 -0.1831868,-0.282899 -0.3974097,-0.282899 -0.2961179,0 -0.7508158,0.471354 -0.7508158,0.77832 0,0.0573 -0.062023,0.121972 -0.1531889,0.159734 -0.2031973,0.08417 -0.2643476,0.278078 -0.2643476,0.838262 0,0.703586 -0.05507,0.689913 2.4791232,0.615547 l 0.5741127,-0.01685 0.9023873,0.361219 0.9023877,0.361219 -0.171699,0.07244 C 9.8316216,17.436071 7.3226315,18.262498 6.9654295,18.341924 6.5113048,18.442902 6.422763,18.4228 6.0873372,18.142559 5.9632537,18.03889 5.8349327,17.954071 5.8021785,17.954071 c -0.1390016,0 -0.6019833,0.282185 -0.6554259,0.399479 -0.1107698,0.243113 -0.071163,0.558373 0.099798,0.79438 0.1450992,0.200302 0.1573362,0.250384 0.1517594,0.621087 -0.00333,0.22177 0.00973,0.442677 0.029032,0.490906 0.038409,0.09596 0.2634817,0.200297 0.5486492,0.254328 0.4161843,0.07885 0.4493617,0.06679 0.894312,-0.325297 z m 5.1338718,-4.322566 c 0.01774,-0.02871 0.07784,-0.05219 0.133561,-0.05219 0.05572,0 0.101304,-0.02349 0.101304,-0.05219 0,-0.0287 0.03523,-0.05219 0.07829,-0.05219 0.04306,0 0.07829,0.03743 0.07829,0.08319 0,0.07025 0.04261,0.07744 0.274008,0.04622 0.325473,-0.0439 0.351771,-0.05665 0.354033,-0.171635 0.0014,-0.07296 0.01872,-0.0679 0.0997,0.02918 0.16847,0.201946 0.471657,0.12842 0.473473,-0.114822 5.8e-4,-0.07791 0.01271,-0.08821 0.04462,-0.03788 0.07207,0.113671 0.389242,0.05573 0.449736,-0.08216 0.03529,-0.08043 0.09631,-0.117432 0.193687,-0.117432 0.07904,0 0.189421,-0.05072 0.248584,-0.114226 0.118837,-0.127556 0.133281,-0.306981 0.05101,-0.633696 -0.139468,-0.55388 0.240364,-0.735589 0.668489,-0.319799 0.15073,0.146388 0.226175,0.180401 0.399619,0.180164 0.320304,-4.17e-4 0.587072,-0.09132 0.789349,-0.268922 0.151726,-0.133218 0.181374,-0.194383 0.182032,-0.375546 9.14e-4,-0.251802 0.08211,-0.505242 0.246615,-0.769758 0.0643,-0.103402 0.171857,-0.334141 0.239003,-0.512753 0.111975,-0.29786 0.117022,-0.351437 0.06095,-0.647069 -0.03362,-0.177276 -0.07762,-0.373441 -0.09778,-0.435921 -0.02132,-0.06609 -0.0029,-0.194264 0.04394,-0.306479 0.171575,-0.410638 0.03268,-0.816832 -0.300704,-0.879375 -0.362123,-0.06794 -0.608186,-0.4141778 -0.526274,-0.74054 0.03437,-0.1369394 0.04034,-0.1304535 0.101466,0.1103033 0.07034,0.2770433 0.358804,0.5987937 0.536838,0.5987937 0.142687,0 0.335915,-0.9285166 0.360819,-1.7338397 0.03226,-1.043309 -0.17186,-1.8953377 -0.734976,-3.0678304 C 16.180295,4.6501435 15.926592,4.3037345 15.405506,3.8599928 14.987177,3.5037559 14.71518,3.367471 13.830898,3.07103 13.521049,2.9671583 11.807931,2.9811189 11.318874,3.0915011 10.867217,3.193442 10.266163,3.4384203 9.8704222,3.6818628 9.7091743,3.7810554 9.4421973,3.9426506 9.2771399,4.0409634 9.1120825,4.1392761 8.8765459,4.282473 8.753726,4.3591785 8.2779906,4.656292 7.6860324,5.7985642 7.4610344,6.8536211 7.31794,7.524618 7.3906367,8.6304708 7.6315031,9.4467641 c 0.071997,0.2439979 0.1427125,0.4847338 0.1571446,0.5349687 0.018987,0.066087 -0.00372,0.091336 -0.082136,0.091336 -0.1549682,0 -0.2545224,0.343889 -0.1775344,0.613257 0.1371612,0.479903 0.1831685,0.928414 0.1236852,1.205774 -0.074814,0.348846 -0.074251,0.607202 0.00208,0.956215 0.1057422,0.483472 0.465524,0.769185 1.1098899,0.881396 0.2992975,0.05212 0.4057844,0.04782 0.7226414,-0.02919 l 0.3716175,-0.09032 0.094039,0.116133 c 0.1193327,0.14737 0.1174747,0.260371 -0.011019,0.670283 -0.057041,0.181968 -0.1037109,0.350692 -0.1037109,0.374943 0,0.02425 0.098072,0.110233 0.2179376,0.19107 0.119866,0.08084 0.256814,0.217438 0.304328,0.303555 0.04751,0.08612 0.127677,0.164572 0.17814,0.174344 0.05046,0.0098 0.175144,0.07436 0.277068,0.143528 0.221057,0.150013 0.50697,0.166863 0.584108,0.03442 0.04291,-0.07367 0.05351,-0.07592 0.05479,-0.01161 0.0034,0.168917 0.159447,0.311717 0.340715,0.311717 0.09715,0 0.191148,-0.02349 0.208889,-0.05219 z"
   id="path5548" /><path
   style="fill:#9ad6eb;stroke-width:0.0521921"
   d="M 8.9086527,12.239365 C 8.8235788,12.16778 8.7018432,11.99831 8.6381292,11.862764 8.424864,11.409062 8.5681183,10.894487 8.9927357,10.589004 c 0.200899,-0.144533 0.2971811,-0.178003 0.5323165,-0.185046 0.157881,-0.0047 0.4073861,-0.02532 0.5544558,-0.04575 0.218102,-0.0303 0.345329,-0.0112 0.69011,0.103623 0.44264,0.147413 0.604299,0.278336 0.735861,0.595954 0.03725,0.08993 0.08837,0.16351 0.113588,0.16351 0.07848,0 0.0501,0.175072 -0.05678,0.350374 -0.100266,0.164443 -0.495394,0.386461 -0.945466,0.531246 -0.102817,0.03308 -0.27806,0.106593 -0.389428,0.163372 -0.158339,0.08073 -0.3073159,0.103234 -0.6832729,0.103234 -0.4363702,0 -0.4950738,-0.01202 -0.6354644,-0.130155 z"
   id="path5550" /><path
   style="fill:#9ad6eb;stroke-width:0.0521921"
   d="m 14.449247,12.292204 c -0.271663,-0.06644 -0.737257,-0.303209 -1.048934,-0.533405 -0.199983,-0.147703 -0.218893,-0.322673 -0.08542,-0.790432 0.106391,-0.372862 0.225026,-0.5013 0.589845,-0.638581 0.249297,-0.09381 0.370862,-0.106131 0.839525,-0.08509 0.717624,0.03222 0.890477,0.09028 1.126614,0.378456 0.341073,0.416235 0.429223,1.282529 0.149176,1.466023 -0.20087,0.131615 -0.763776,0.279883 -1.040926,0.274177 -0.143528,-0.003 -0.381972,-0.03497 -0.529876,-0.07115 z"
   id="path5552" /><path
   style="fill:#9ad6eb;stroke-width:0.0521921"
   d="m 12.525968,13.900807 c -0.04664,-0.109278 -0.101801,-1.299534 -0.06744,-1.455095 0.03326,-0.150534 0.163261,0.172866 0.305517,0.76 l 0.115849,0.478143 -0.156478,0.156478 c -0.143121,0.143121 -0.159976,0.148283 -0.197453,0.06047 z"
   id="path5554" /><path
   style="fill:#9ad6eb;stroke-width:0.0521921"
   d="m 11.897679,13.828564 c -0.08644,-0.09551 -0.09062,-0.140721 -0.03979,-0.430585 0.03123,-0.178126 0.111785,-0.464785 0.179002,-0.637019 l 0.122213,-0.313152 0.03175,0.313152 c 0.03235,0.319033 -0.01819,0.806584 -0.108131,1.043148 -0.06021,0.158353 -0.06348,0.158786 -0.185048,0.02446 z"
   id="path5556" /><path
   style="fill:#000101;stroke-width:0.0521921;fill-opacity:1"
   d="M 8.6344218,9.7578366 C 8.5759079,9.7216731 8.58402,9.6900326 8.6772479,9.590796 8.7405054,9.5234615 8.8193075,9.3907856 8.8523636,9.2959607 8.9222004,9.0956267 9.001026,9.1627896 9.0023323,9.4237406 9.0035812,9.6732187 8.7986366,9.859327 8.6344218,9.7578366 Z"
   id="path5558" /><path
   style="fill:#000101;fill-opacity:1;stroke-width:0.0521921"
   d="m 11.602661,15.775052 c -0.04314,-0.05024 -0.09543,-0.138309 -0.116201,-0.19572 -0.03553,-0.09822 -0.04173,-0.09899 -0.105023,-0.01305 -0.09483,0.128766 -0.330139,0.113394 -0.523657,-0.03421 -0.09053,-0.06905 -0.221922,-0.133638 -0.291983,-0.143528 -0.08466,-0.01195 -0.132899,-0.05677 -0.143828,-0.133633 -0.01777,-0.124964 -0.28679,-0.380174 -0.400747,-0.380174 -0.1153622,0 -0.119777,-0.11271 -0.01839,-0.469563 0.118429,-0.416844 0.120857,-0.568236 0.01161,-0.724201 C 9.923251,13.55078 9.8477785,13.549805 9.3687269,13.672673 9.0503091,13.754313 8.6766277,13.698823 8.2873751,13.512099 7.8987021,13.32565 7.7806898,13.17431 7.6930307,12.749907 7.6402257,12.49425 7.6397847,12.34526 7.6908407,12.011708 c 0.065041,-0.424878 0.029898,-0.865832 -0.1051083,-1.31882 -0.082206,-0.275829 0.020228,-0.567589 0.1992756,-0.567589 0.084387,0 0.1210999,-0.02314 0.1034896,-0.06524 C 7.816195,9.8871701 7.5939339,9.1250997 7.5345923,8.8465553 7.49656,8.6680355 7.4681475,8.1856025 7.4685054,7.7244259 7.4690721,6.9941106 7.4828641,6.8707924 7.6103458,6.4561912 7.865099,5.6276724 8.3563067,4.732135 8.6973963,4.474353 8.7937866,4.401505 8.9783403,4.2877921 9.1075157,4.2216575 9.236691,4.155523 9.4488712,4.0255452 9.5790273,3.9328181 9.9414159,3.6746412 10.756388,3.3010009 11.221294,3.1798875 c 0.535988,-0.1396309 1.848341,-0.1977537 2.332543,-0.1033061 0.583731,0.1138618 1.292399,0.410836 1.641553,0.6879092 0.609151,0.4833956 0.871496,0.8205852 1.264192,1.6248512 0.601758,1.2324409 0.810118,2.0576245 0.777409,3.0788278 -0.01534,0.4789797 -0.199916,1.6188414 -0.275289,1.7000844 -0.0086,0.0093 -0.08792,-0.02046 -0.176219,-0.06612 C 16.588065,10.000041 16.463245,9.768893 16.418584,9.4226858 16.38532,9.1648361 16.383237,9.1622521 16.31174,9.2901879 16.27163,9.3619519 16.23858,9.532321 16.23829,9.668786 c -6.89e-4,0.3218612 0.136354,0.509635 0.449093,0.615327 0.131113,0.04431 0.275371,0.111259 0.320573,0.148773 0.134968,0.112014 0.160279,0.399608 0.0586,0.66585 -0.07278,0.190569 -0.08007,0.27634 -0.0364,0.428333 0.164998,0.574301 0.163402,0.661941 -0.01973,1.083212 -0.09488,0.218247 -0.205506,0.435379 -0.245844,0.482514 -0.08687,0.101506 -0.187083,0.472164 -0.20612,0.762347 -0.01216,0.185312 -0.0397,0.223031 -0.263807,0.361243 -0.170503,0.105154 -0.341016,0.161855 -0.535153,0.177954 -0.274585,0.02277 -0.293387,0.01582 -0.518433,-0.191619 -0.252755,-0.232982 -0.526211,-0.290191 -0.65357,-0.136733 -0.07541,0.09087 -0.08889,0.419041 -0.03107,0.75656 0.0344,0.200828 0.02416,0.251883 -0.07067,0.352296 -0.06529,0.06914 -0.172971,0.117433 -0.261818,0.117433 -0.116766,0 -0.154687,0.02657 -0.167591,0.117432 -0.01271,0.0895 -0.05633,0.121271 -0.183365,0.133568 -0.140734,0.01362 -0.179543,-0.0087 -0.249253,-0.143529 -0.04541,-0.08781 -0.09564,-0.159663 -0.111627,-0.159663 -0.01598,0 -0.02125,0.11156 -0.01171,0.247912 0.01571,0.224463 0.0061,0.249509 -0.101654,0.264797 -0.07484,0.01062 -0.154022,-0.02636 -0.213363,-0.09964 -0.09716,-0.119987 -0.215645,-0.101501 -0.215645,0.03364 0,0.04137 -0.04404,0.07521 -0.09786,0.07521 -0.05382,0 -0.171255,0.01468 -0.26096,0.03262 -0.129142,0.02583 -0.1631,0.01496 -0.1631,-0.05219 0,-0.05567 -0.04483,-0.08481 -0.13048,-0.08481 -0.07176,0 -0.13048,0.02349 -0.13048,0.05219 0,0.02871 -0.04559,0.05219 -0.101304,0.05219 -0.05572,0 -0.11582,0.02349 -0.133561,0.05219 -0.05185,0.08389 -0.264077,0.06011 -0.349322,-0.03914 z m 0.586269,-2.134785 c 0.05604,-0.248743 0.07564,-1.314809 0.0251,-1.365346 -0.0425,-0.0425 -0.286585,0.552712 -0.367677,0.896576 -0.102027,0.432637 -0.09623,0.568735 0.0311,0.730617 0.09276,0.11793 0.118552,0.127078 0.18131,0.06432 0.04024,-0.04024 0.09881,-0.187016 0.130163,-0.326167 z m 0.595659,0.245398 c 0.146902,-0.153333 0.147264,-0.155426 0.08358,-0.482776 -0.08272,-0.425167 -0.317012,-1.137753 -0.374086,-1.137753 -0.08591,0 -0.111737,0.277035 -0.08775,0.941192 0.02255,0.624408 0.07136,0.833338 0.194686,0.833338 0.01982,0 0.102431,-0.0693 0.183579,-0.154001 z M 10.29662,12.298357 c 0.135398,-0.06785 0.340123,-0.153276 0.454946,-0.189844 0.428291,-0.136405 0.797343,-0.357302 0.882657,-0.528318 0.1073,-0.215088 0.10318,-0.303906 -0.02149,-0.463285 -0.05614,-0.07176 -0.102585,-0.155071 -0.103224,-0.185128 -6.38e-4,-0.03006 -0.08923,-0.1388 -0.196881,-0.241652 -0.281045,-0.26853 -0.807923,-0.433376 -1.233583,-0.385955 -0.1755216,0.01955 -0.4093105,0.0332 -0.5195306,0.03031 -0.2428408,-0.0063 -0.5877948,0.152524 -0.7904568,0.364057 -0.3070032,0.320443 -0.3718744,0.83013 -0.1590985,1.250023 0.2116223,0.417617 0.3200432,0.473143 0.9238647,0.473143 0.4388669,0 0.5536662,-0.01856 0.7627942,-0.123355 z m 5.274679,0.03919 c 0.162299,-0.04629 0.369848,-0.129437 0.46122,-0.184771 0.142548,-0.08633 0.170818,-0.139205 0.19915,-0.372518 0.0328,-0.270152 -0.05669,-0.795178 -0.171538,-1.006398 -0.117267,-0.215658 -0.43483,-0.462637 -0.677005,-0.526527 -0.136084,-0.0359 -0.482291,-0.06559 -0.769347,-0.06598 -0.592447,-7.94e-4 -1.009396,0.127066 -1.184262,0.363163 -0.118943,0.160592 -0.249555,0.630545 -0.250401,0.90096 -7.72e-4,0.246786 0.127198,0.383525 0.580234,0.619997 0.659173,0.34407 1.248988,0.432632 1.811949,0.27207 z M 8.7160752,9.8325793 c 0.2007719,-0.025233 0.3392484,-0.1939864 0.3392484,-0.4134248 0,-0.3275339 -0.1624312,-0.4772693 -0.229191,-0.2112772 -0.017456,0.069552 -0.085597,0.1928555 -0.1514237,0.2740084 -0.065827,0.081153 -0.162702,0.2157724 -0.2152785,0.299155 -0.09306,0.1475872 -0.093001,0.1505397 0.00224,0.1114108 0.053807,-0.022107 0.1682903,-0.04905 0.2544073,-0.059872 z"
   id="path6247" /><path
   style="fill:#000101;fill-opacity:1;stroke-width:0.0521921"
   d="M 5.9759916,20.460472 C 5.6853447,20.398411 5.5234515,20.318056 5.482189,20.215376 5.461118,20.162946 5.446987,19.942671 5.450786,19.725885 5.457126,19.364275 5.444616,19.313674 5.299306,19.11308 5.0175847,18.724175 5.0940171,18.357268 5.501094,18.144414 c 0.1453143,-0.07598 0.2741611,-0.138151 0.2863263,-0.138151 0.012165,0 0.1183559,0.0804 0.2359794,0.178676 0.3091301,0.258271 0.5108316,0.312557 0.8783548,0.236404 0.6678396,-0.138382 3.5772445,-1.142374 3.5590395,-1.228171 -0.01205,-0.05678 -1.2253275,-0.552213 -1.7324606,-0.707437 -0.297911,-0.09118 -0.4243253,-0.102214 -0.808977,-0.07058 -0.2507402,0.02062 -0.8092854,0.04063 -1.2412115,0.04447 -1.0450816,0.0093 -1.0695986,-0.0047 -1.0622956,-0.607487 0.00688,-0.568041 0.040955,-0.674803 0.2441471,-0.765001 0.094485,-0.04194 0.1681869,-0.113648 0.1681869,-0.163632 0,-0.294758 0.452412,-0.779454 0.7275379,-0.779454 0.1564237,0 0.3163035,0.140162 0.3163035,0.277295 0,0.190217 0.2947732,0.400227 0.9916492,0.706493 0.3875261,0.170312 1.197808,0.542883 1.8006263,0.827934 0.6028188,0.285052 1.3491818,0.621461 1.6585838,0.747577 l 0.562551,0.2293 0.768347,-0.253854 c 0.422591,-0.13962 1.261562,-0.458076 1.864381,-0.707679 0.602818,-0.249604 1.400004,-0.554878 1.771523,-0.678386 0.723322,-0.240462 0.8165,-0.303403 1.046715,-0.70705 0.249622,-0.437673 0.377246,-0.546014 0.643196,-0.546014 0.12765,0 0.320763,-0.02657 0.429139,-0.05904 0.41848,-0.125379 0.623837,0.05836 0.521124,0.466273 -0.05995,0.238067 -0.05917,0.240587 0.122522,0.398949 0.188336,0.164152 0.351915,0.542014 0.307751,0.710898 -0.01322,0.05055 -0.08038,0.144848 -0.149254,0.209549 -0.114525,0.10759 -0.196004,0.121101 -0.954089,0.158202 -1.355844,0.06635 -2.930167,0.416653 -4.027757,0.896203 -0.35768,0.156274 -0.695356,0.299835 -0.750391,0.319022 -0.05841,0.02037 -0.08014,0.05329 -0.05219,0.07911 0.06491,0.05996 1.380991,0.444801 2.057266,0.601577 0.301409,0.06987 0.829854,0.201874 1.174322,0.293334 0.801987,0.212935 1.477969,0.24066 1.722338,0.07064 0.276461,-0.19235 0.316931,-0.188502 0.620799,0.05903 0.308086,0.250965 0.306997,0.245834 0.141565,0.666566 -0.09532,0.242422 -0.06943,0.320449 0.199388,0.600817 0.295239,0.307928 0.340431,0.410225 0.266791,0.603912 -0.05398,0.141983 -0.426464,0.344587 -0.633514,0.344587 -0.140839,0 -1.017947,-0.416825 -1.546529,-0.73495 -0.500325,-0.30112 -0.700978,-0.377222 -1.853687,-0.703046 -0.452038,-0.127773 -1.470754,-0.478885 -2.263814,-0.780249 -0.79306,-0.301364 -1.494864,-0.547934 -1.559566,-0.547934 -0.12915,0 -1.871362,0.59193 -3.3290615,1.131076 -0.8811072,0.325886 -0.9360563,0.354344 -1.0786936,0.558656 -0.162061,0.232134 -0.8340755,0.902996 -1.044707,1.042916 -0.137056,0.09105 -0.2305133,0.09724 -0.5233557,0.03471 z"
   id="path6249" /><path
   style="fill:#9ad6eb;fill-opacity:1;stroke-width:0.0521921"
   d="m 8.6377871,9.735633 c 0,-0.013356 0.070459,-0.1353863 0.1565762,-0.2711785 L 8.9509395,9.2175594 v 0.1891625 c 0,0.1946215 -0.1071204,0.3531946 -0.2385923,0.3531946 -0.041008,0 -0.07456,-0.010928 -0.07456,-0.024283 z"
   id="path6443" /></svg>
