<svg xmlns="http://www.w3.org/2000/svg" viewBox="0 0 1600 260.52"><defs><style>.cls-1{fill:#ccdbcc;}.cls-2{fill:#1d1d1b;}.cls-3{opacity:0.2;}.cls-4{fill:#d9c7de;}.cls-5{opacity:0.8;}.cls-6{fill:#cee9f5;}.cls-7{fill:#f6c5d8;}.cls-8{fill:#efdeba;}.cls-9{fill:#dee2e5;}.cls-10,.cls-11,.cls-12,.cls-13,.cls-14,.cls-15,.cls-16{fill:#fff;stroke-miterlimit:10;stroke-width:3px;}.cls-10{stroke:#c6c6c6;}.cls-11{stroke:#e3e7ed;}.cls-12{stroke:#fff2ce;}.cls-13{stroke:#f7c4dc;}.cls-14{stroke:#d4edfc;}.cls-15{stroke:#ddc8e3;}.cls-16{stroke:#daede3;}</style></defs><title>mavericks-interactive-analysis-2 darker colours</title><g id="vicious"><path class="cls-1" d="M1364.13,236.75c-1.18,0-2.42.07-3.46.14s-1.87.14-2.15.14-.55,0-.76-.42a.78.78,0,0,1,.21-1.05c3.26-3.08,9.35-8.47,14.89-14.49s8.73-11.41,8.52-17.5-3.95-9.94-8.93-9.87c-5.89.07-8.1,4.69-9.28,6.79-.28.49-.48.56-.83.35l-1-.42c-.21-.14-.28-.35,0-1,1.11-2.73,4.5-10.5,13.85-10.5a12.44,12.44,0,0,1,12.12,12.74c0,6-2.35,11-8.59,18.06-4.71,5.46-10.18,9.52-13.23,12.25h14.06c4.71,0,6.51-3.29,8-5.88.35-.63.55-.7,1.25-.35s.83.56.55,1l-4.5,10.92c-.35.77.21.77-1,.77-.62,0-.62-.07-.9-.7-.42-.91-1.73-1-3.81-1Z"/><path class="cls-1" d="M1418,193.83c3.12,3.57,3.74,9.1,3.74,11.27,0,9.38-3.12,19-11.29,26.32a25.9,25.9,0,0,1-10,5.88,10.1,10.1,0,0,1-2.15.49.93.93,0,0,1-1-1,1,1,0,0,1,.62-1c6-2.45,15.24-10.08,16.76-21.77l-.07-.14a11.61,11.61,0,0,1-8.45,3.43c-9.56,0-12.81-7.35-12.81-14,0-2.66,2.49-8.47,5.13-10.78a13.64,13.64,0,0,1,8.8-3.64C1412.2,188.93,1414.9,190.4,1418,193.83ZM1398.9,203c0,6.58,3.88,11.34,8.59,11.34a7.34,7.34,0,0,0,7-4c.83-1.75,1-4.06,1-6.93,0-6.16-1.73-12.25-8-12.25C1403.4,191.17,1398.9,195.16,1398.9,203Z"/><ellipse class="cls-1" cx="1536.93" cy="114.57" rx="9.16" ry="9.26"/><ellipse class="cls-1" cx="1480.77" cy="114.57" rx="9.16" ry="9.25"/><ellipse class="cls-1" cx="1518.21" cy="114.57" rx="9.16" ry="9.25"/><ellipse class="cls-1" cx="1462.05" cy="114.57" rx="9.16" ry="9.25"/><ellipse class="cls-1" cx="1499.49" cy="114.57" rx="9.16" ry="9.25"/><path class="cls-2" d="M52.45,108.93A1.38,1.38,0,0,0,51,110.25a1.23,1.23,0,0,0,.75,1.2,1.4,1.4,0,0,1,.83,1.24c0,.72-.48,1.32-1.5,1.32a2.11,2.11,0,0,1-1.86-2.36A5.55,5.55,0,0,1,51,108a4.47,4.47,0,0,1,3-1.4h2.89l3.64-.24c.51,0,.79.32.32.8-1.19,1.32-4.67,7-4.67,10.76,0,1.88,1,2.92,2.38,2.92a5.56,5.56,0,0,0,4.63-2.8A18.51,18.51,0,0,0,64.76,113c.28-1.56.36-3.48.67-4.92a1.7,1.7,0,0,1,1.78-1.28.91.91,0,0,1,1,1c0,.68-1,3.12-2.06,6.16a12.82,12.82,0,0,0-.91,3.64,3.44,3.44,0,0,0,3.48,3.28c2.65,0,5.54-3,5.54-8.36a5.52,5.52,0,0,0-.59-2.44c-.36-.36-1.31-1.16-1.31-2.16a1.63,1.63,0,0,1,1.74-1.6c1,0,2,.64,2,4.12a17,17,0,0,1-2.69,9.24c-1.11,1.44-2.81,3.68-5.82,3.68a4.33,4.33,0,0,1-4-3.68c-.75,1-3.44,3.68-6.45,3.68a3.75,3.75,0,0,1-3.6-4.08c0-3.32,3.64-8.76,5.22-10.68l-.28-.28a8.79,8.79,0,0,1-2.89.68Z"/><path class="cls-2" d="M77.42,119.37c0-3.36,2.18-7.56,5.07-10.44,1.27-1.28,3.4-2.68,5.3-2.68A2.13,2.13,0,0,1,90,108.37c0,2-1.46,4-3.68,5.2a16,16,0,0,1-5.74,1.64,11,11,0,0,0-.51,3.68,2.31,2.31,0,0,0,2.06,2.52,5.77,5.77,0,0,0,4.51-2.84c.08-.12.2-.2.36,0l.44.36c.2.12.2.24,0,.36-1,1.4-3.36,4-6.41,4C78.53,123.29,77.42,122,77.42,119.37ZM80.95,114c1.38.12,6.57-1.56,6.57-4.52,0-.8-.4-1.52-1.27-1.52C83.72,108,81.26,112.61,80.95,114Z"/><path class="cls-2" d="M91.47,122.29c0-.92.67-2.76,2.33-7.24L95,111.93a9.48,9.48,0,0,0,.71-2.36.49.49,0,0,0-.55-.52c-.67,0-2.53,2.16-3.17,2.8-.16.16-.32.16-.44,0l-.32-.36c-.16-.12-.24-.2-.12-.36s4.2-5,6.73-4.92a.93.93,0,0,1,1,1,20.57,20.57,0,0,1-1.35,4.44l-2.3,6.08a9.81,9.81,0,0,0-.71,2.64c0,.36.12.6.44.68.83-.16,3-2.44,3.17-2.8.08-.12.24-.12.43.08l.32.28c.16.2.2.28.08.48s-3.4,4.16-6.69,4.16C91.75,123.25,91.47,122.93,91.47,122.29Zm5-23.32a2,2,0,0,1,2.06-2,2,2,0,0,1,2.1,1.92,2,2,0,0,1-2.1,2A2,2,0,0,1,96.46,99Z"/><path class="cls-2" d="M96.82,129.53c0-3,4.75-4.92,6.69-5.76-1.15-.84-1.5-1.56-1.5-2.32s.71-1.44,3.36-3a4.66,4.66,0,0,1-3.09-4.6c0-3,2.61-7.64,7-7.64a3.85,3.85,0,0,1,3.36,1.88,5.54,5.54,0,0,1,3.36-1.48,1.58,1.58,0,0,1,1.66,1.56,1.21,1.21,0,0,1-1.27,1.24,1.51,1.51,0,0,1-1.31-.6,1.11,1.11,0,0,0-.75-.28,1.67,1.67,0,0,0-1.15.56,9.24,9.24,0,0,1,.32,2.24c0,1.92-1.11,6.4-5.66,7.2a4.44,4.44,0,0,0-1.19.28c-.75.32-2.06,1.24-2.06,1.92a1.56,1.56,0,0,0,.67,1.08c.67.48,2.57,1.68,5.15,3.4,2.3,1.52,2.93,2.84,2.93,4.32,0,.64-.67,5.2-8.43,5.2C100.81,134.76,96.82,132.41,96.82,129.53Zm8.91,4c2.69,0,4.95-1,4.95-3.2,0-1.76-1.66-2.84-2.65-3.52l-3.48-2.28c-3.25,1.32-5,2.84-5,4.72C99.55,132,103.07,133.53,105.72,133.53Zm5.26-23.6c0-1.84-.71-2.68-1.78-2.68-2.37,0-4.39,4.68-4.39,7.68,0,1.8.67,2.72,1.86,2.72C109.56,117.65,111,112.81,111,109.93Z"/><path class="cls-2" d="M116.21,122.89c-.24,0-.32-.12-.28-.2L125,100a5.1,5.1,0,0,0,.51-2c0-.48-.55-.8-1.31-.8H123c-.24,0-.44-.12-.36-.36l.2-.68c.08-.2.12-.32.44-.32h5.34c.32,0,.47.12.47.48a4.66,4.66,0,0,1-.36,1.2l-6.21,14.72.2.16c2-2.84,4.59-6.2,7.84-6.2,1.82,0,2.73,1.52,2.73,3.36a20.94,20.94,0,0,1-2.73,9.28c-1.58,3-3.72,5.28-5.94,5.28a1.91,1.91,0,0,1-2-1.72c0-.92.59-2,1.42-2a1.42,1.42,0,0,1,1.39,1.2c0,.36.24.8.67.8.87,0,2.18-2.6,2.93-4.64a23.72,23.72,0,0,0,1.58-7.24c0-1-.08-2.24-1.19-2.24-2.1,0-5.58,4.16-6.65,5.52a19.2,19.2,0,0,0-2.61,4.64l-1.66,4.08c-.08.24-.28.28-.55.28Z"/><path class="cls-2" d="M139.56,108.81h-2.77c-.24,0-.32-.08-.24-.32l.32-.88a.4.4,0,0,1,.44-.28h2.85l2.06-4.64a.94.94,0,0,1,.63-.6,15,15,0,0,0,1.78-.68,1.66,1.66,0,0,1,.59-.24c.24,0,.32.24,0,.8l-2.61,5.36h4c.2,0,.28.12.16.44l-.36.84a.37.37,0,0,1-.36.2h-4l-3.84,9a10.68,10.68,0,0,0-.91,2.56c0,.44.16.68.51.68,1.15,0,3.72-2.28,4-2.56s.24-.12.36,0l.44.48c.12.12.12.2,0,.36-.51.64-4.2,4-7.24,4-1,0-1.27-.4-1.27-1a5.41,5.41,0,0,1,.44-1.88Z"/><path class="cls-2" d="M145.06,119.37c0-3.36,2.18-7.56,5.07-10.44,1.27-1.28,3.4-2.68,5.3-2.68a2.13,2.13,0,0,1,2.26,2.12c0,2-1.46,4-3.68,5.2a16,16,0,0,1-5.74,1.64,11,11,0,0,0-.51,3.68,2.31,2.31,0,0,0,2.06,2.52,5.77,5.77,0,0,0,4.51-2.84c.08-.12.2-.2.36,0l.44.36c.2.12.2.24,0,.36-1,1.4-3.36,4-6.41,4C146.17,123.29,145.06,122,145.06,119.37Zm3.52-5.32c1.38.12,6.57-1.56,6.57-4.52,0-.8-.4-1.52-1.27-1.52C151.36,108,148.9,112.61,148.59,114Z"/><path class="cls-2" d="M172.61,97.25c-.32,0-.36-.16-.32-.28l.24-.84c0-.16.12-.24.47-.24h4.87c.55,0,.63.4.47.72-.59,1.4-7.52,20.12-8.19,22.52-.36,1.24-.4,1.84.16,1.84s2.57-1.84,2.77-2.08a.28.28,0,0,1,.44,0l.4.4c.12.08.12.24,0,.4-.28.36-3.68,3.56-5.78,3.56-.63,0-1.07-.2-1.07-.92a28.72,28.72,0,0,1,1.74-5.8l-.32-.08c-1.94,3.12-5.66,6.8-8.35,6.8a2.46,2.46,0,0,1-2.53-2.64c0-3.16,2.22-7.92,5.46-11.16,1.27-1.24,3.56-3.24,6.21-3.24a3.14,3.14,0,0,1,2.49,1.32l3-8.76c.28-.76.08-1.56-1-1.56Zm-4.67,18.52c1.11-1.52,2.57-4,2.57-5.6,0-1.88-.83-2.64-2.1-2.64-3.72,0-7.92,8.76-7.92,12.44a1.19,1.19,0,0,0,1.15,1.28C163.31,121.25,166.36,118,167.94,115.77Z"/><path class="cls-2" d="M30.88,143.21a2.08,2.08,0,0,0-2.18,2.08,1.33,1.33,0,0,0,.87,1.16,1.53,1.53,0,0,1,.87,1.2A1.32,1.32,0,0,1,29,149c-.75,0-1.82-.56-1.82-2.28a6.86,6.86,0,0,1,1.54-3.88c.79-.88,1.66-1.92,4.51-1.92a39.5,39.5,0,0,0,4.95-.2c.51,0,.91.24.51.76-.83,1-4.67,6.44-4.67,10.44,0,2.72,1.42,3.72,2.81,3.72,3.4,0,6.85-5.4,6.85-9.44a5.43,5.43,0,0,0-.32-2.08,4.65,4.65,0,0,1-.59-1.64,1.62,1.62,0,0,1,1.78-1.76c1.11,0,1.54,1.16,1.54,2.12a21.3,21.3,0,0,1-2.61,9c-1.78,3.12-5,6-8.23,6a3.77,3.77,0,0,1-3.92-4.12c0-3.72,3.29-8.64,5.58-11.36l-.28-.12a7.44,7.44,0,0,1-3.68,1.08Z"/><path class="cls-2" d="M47.86,156.73c0-.92.67-2.76,2.33-7.24l1.15-3.12a9.48,9.48,0,0,0,.71-2.36.49.49,0,0,0-.55-.52c-.67,0-2.53,2.16-3.17,2.8-.16.16-.32.16-.44,0l-.32-.36c-.16-.12-.24-.2-.12-.36s4.2-5,6.73-4.92a.93.93,0,0,1,1,1,20.57,20.57,0,0,1-1.35,4.44l-2.3,6.08a9.81,9.81,0,0,0-.71,2.64c0,.36.12.6.44.68.83-.16,3-2.44,3.17-2.8.08-.12.24-.12.44.08l.32.28c.16.2.2.28.08.48s-3.4,4.16-6.69,4.16C48.14,157.69,47.86,157.37,47.86,156.73Zm5-23.32a2,2,0,0,1,2.06-2,2,2,0,0,1,2.1,1.92,2,2,0,0,1-2.1,2A2,2,0,0,1,52.85,133.41Z"/><path class="cls-2" d="M57,154.05c0-5.44,4.39-13.36,9-13.36a2.15,2.15,0,0,1,2.26,2.24,1.76,1.76,0,0,1-1.62,1.68,1,1,0,0,1-1-.88,1.41,1.41,0,0,0-1.23-1c-1,0-2,1-2.89,2.76a21.83,21.83,0,0,0-1.7,7c0,2.92.87,3.32,1.58,3.32,1.54,0,3-1.6,3.48-2.16.12-.16.24-.24.36-.16l.44.4c.12.08.2.2,0,.44-.55.84-3.17,3.44-5.7,3.44C58.55,157.73,57,156.73,57,154.05Z"/><path class="cls-2" d="M69.19,156.73c0-.92.67-2.76,2.33-7.24l1.15-3.12a9.48,9.48,0,0,0,.71-2.36.49.49,0,0,0-.55-.52c-.67,0-2.53,2.16-3.17,2.8-.16.16-.32.16-.44,0l-.32-.36c-.16-.12-.24-.2-.12-.36s4.2-5,6.73-4.92a.93.93,0,0,1,1,1,20.57,20.57,0,0,1-1.35,4.44l-2.3,6.08a9.81,9.81,0,0,0-.71,2.64c0,.36.12.6.44.68.83-.16,3-2.44,3.17-2.8.08-.12.24-.12.44.08l.32.28c.16.2.2.28.08.48s-3.4,4.16-6.69,4.16C69.47,157.69,69.19,157.37,69.19,156.73Zm5-23.32a2,2,0,0,1,2.06-2,2,2,0,0,1,2.1,1.92,2,2,0,0,1-2.1,2A2,2,0,0,1,74.18,133.41Z"/><path class="cls-2" d="M78.65,152.57c0-5,3.76-11.88,9-11.88,2.65,0,4.24,2,4.24,4.68,0,4.4-3.44,12.36-9.18,12.36C80.55,157.73,78.65,155.61,78.65,152.57Zm11.68-7.8a2,2,0,0,0-2-2.24c-1.66,0-3.76,1.52-5.74,4.76a13.54,13.54,0,0,0-2.3,6.48,1.88,1.88,0,0,0,1.82,2C86.25,155.81,90.33,147.41,90.33,144.77Z"/><path class="cls-2" d="M110.12,141.09c.36,0,.44.12.36.36l-3,8.32a37.68,37.68,0,0,0-1.66,5.2c0,.36,0,.36.32.48.59,0,2.77-2,3.09-2.48a.2.2,0,0,1,.36,0l.4.4c.12.12.12.2,0,.36s-3.8,4-6.53,4c-.55,0-.75-.44-.75-.92s2-5.48,2.53-6.84l-.24-.12c-1.66,2.44-5.86,7.88-9.78,7.88a1.56,1.56,0,0,1-1.46-1.64c0-1.28,1.27-3.76,2.81-7.48,1-2.48,1.94-4.36,1.94-5.08a.57.57,0,0,0-.63-.56c-.71,0-2.69,1.8-3.09,2.28a.22.22,0,0,1-.36,0l-.36-.36c-.12-.08-.12-.2,0-.36.28-.36,3.56-3.84,6.09-3.84.79,0,1.15.8,1.15,1.44,0,1-1,3.36-2.57,6.92-1.07,2.36-2.1,4.92-2.1,5.8a.63.63,0,0,0,.67.68c2.1,0,6.29-5.24,7.44-6.92a15.69,15.69,0,0,0,1.82-3.4l1.38-3.84c.08-.24.28-.28.55-.28Z"/><path class="cls-2" d="M110,155.49a1.38,1.38,0,0,1,1.35-1.32,1.71,1.71,0,0,1,1.62,1.28c.24.68.44,1.12,1.42,1.12a2.35,2.35,0,0,0,2.22-2.44c0-1.72-1.19-3.36-1.7-4.64a8.64,8.64,0,0,1-1.15-3.92,5.15,5.15,0,0,1,5-4.88c1.19,0,2.81.48,2.81,2a1.3,1.3,0,0,1-1.23,1.28,1.48,1.48,0,0,1-1.35-1c-.2-.48-.24-1.12-1-1.12a2.48,2.48,0,0,0-1.94,2.52c0,1.48,1.19,3.16,1.42,3.72a10,10,0,0,1,1.5,4.56,5,5,0,0,1-5.22,5C111.38,157.73,110,156.81,110,155.49Z"/><path class="cls-2" d="M123,157.33c-.44,0-.51-.08-.44-.36l2.81-7.4a40.27,40.27,0,0,0,2.06-6c0-.4-.16-.68-.59-.68-.75,0-2.65,1.92-3.33,2.68-.12.12-.24.12-.4,0l-.36-.36c-.16-.16-.2-.24-.08-.4.59-.72,3.52-4,6.37-4a1.19,1.19,0,0,1,1.27,1.2c0,1.24-1.7,5-2,6l.16.08c1.19-1.92,5.5-7.24,9-7.24,1.19,0,2,.6,2,1.64,0,1.76-.91,3.84-2.22,7.08a33.41,33.41,0,0,0-2,5.52.49.49,0,0,0,.48.52c.59,0,2.33-1.48,2.85-2a.28.28,0,0,1,.44.08l.28.32c.16.16.2.24,0,.44-.47.64-3.68,3.48-6.33,3.48-.51,0-1-.2-1-.8,0-.76,1.42-3.92,2.65-7.36.55-1.56,2-4.88,2-5.76,0-.56-.28-.92-1-.92-1.54,0-5.46,3.68-7.2,6.52a23.37,23.37,0,0,0-2.38,5l-1,2.68c-.08.16-.16.24-.55.24Z"/><path class="cls-2" d="M141.42,153.81c0-3.36,2.18-7.56,5.07-10.44,1.27-1.28,3.4-2.68,5.3-2.68a2.13,2.13,0,0,1,2.26,2.12c0,2-1.46,4-3.68,5.2a16,16,0,0,1-5.74,1.64,11,11,0,0,0-.51,3.68,2.31,2.31,0,0,0,2.06,2.52,5.77,5.77,0,0,0,4.51-2.84c.08-.12.2-.2.36,0l.44.36c.2.12.2.24,0,.36-1,1.4-3.36,4-6.41,4C142.53,157.73,141.42,156.45,141.42,153.81Zm3.52-5.32c1.38.12,6.57-1.56,6.57-4.52,0-.8-.4-1.52-1.27-1.52C147.72,142.45,145.26,147.05,144.95,148.49Z"/><path class="cls-2" d="M153,155.49a1.38,1.38,0,0,1,1.35-1.32,1.71,1.71,0,0,1,1.62,1.28c.24.68.44,1.12,1.42,1.12a2.35,2.35,0,0,0,2.22-2.44c0-1.72-1.19-3.36-1.7-4.64a8.64,8.64,0,0,1-1.15-3.92,5.15,5.15,0,0,1,5-4.88c1.19,0,2.81.48,2.81,2a1.3,1.3,0,0,1-1.23,1.28,1.48,1.48,0,0,1-1.35-1c-.2-.48-.24-1.12-1-1.12a2.48,2.48,0,0,0-1.94,2.52c0,1.48,1.19,3.16,1.42,3.72a10,10,0,0,1,1.5,4.56,5,5,0,0,1-5.22,5C154.41,157.73,153,156.81,153,155.49Z"/><path class="cls-2" d="M163.63,155.49a1.38,1.38,0,0,1,1.35-1.32,1.71,1.71,0,0,1,1.62,1.28c.24.68.44,1.12,1.42,1.12a2.35,2.35,0,0,0,2.22-2.44c0-1.72-1.19-3.36-1.7-4.64a8.64,8.64,0,0,1-1.15-3.92,5.15,5.15,0,0,1,5-4.88c1.19,0,2.81.48,2.81,2A1.3,1.3,0,0,1,174,144a1.48,1.48,0,0,1-1.35-1c-.2-.48-.24-1.12-1-1.12a2.48,2.48,0,0,0-1.94,2.52c0,1.48,1.19,3.16,1.42,3.72a10,10,0,0,1,1.5,4.56,5,5,0,0,1-5.22,5C165.05,157.73,163.63,156.81,163.63,155.49Z"/><path class="cls-2" d="M100.94,189.94a1.38,1.38,0,0,1,1.35-1.32,1.71,1.71,0,0,1,1.62,1.28c.24.68.44,1.12,1.42,1.12a2.35,2.35,0,0,0,2.22-2.44c0-1.72-1.19-3.36-1.7-4.64A8.64,8.64,0,0,1,104.7,180a5.15,5.15,0,0,1,5-4.88c1.19,0,2.81.48,2.81,2a1.3,1.3,0,0,1-1.23,1.28,1.48,1.48,0,0,1-1.35-1c-.2-.48-.24-1.12-1-1.12A2.48,2.48,0,0,0,107,178.9c0,1.48,1.19,3.16,1.42,3.72a10,10,0,0,1,1.5,4.56,5,5,0,0,1-5.22,5C102.36,192.18,100.94,191.26,100.94,189.94Z"/><path class="cls-2" d="M112.81,188.5c0-5.44,4.39-13.36,9-13.36a2.15,2.15,0,0,1,2.26,2.24,1.76,1.76,0,0,1-1.62,1.68,1,1,0,0,1-1-.88,1.41,1.41,0,0,0-1.23-1c-1,0-2,1-2.89,2.76a21.83,21.83,0,0,0-1.7,7c0,2.92.87,3.32,1.58,3.32,1.54,0,3-1.6,3.48-2.16.12-.16.24-.24.36-.16l.44.4c.12.08.2.2,0,.44-.55.84-3.17,3.44-5.7,3.44C114.39,192.18,112.81,191.18,112.81,188.5Z"/><path class="cls-2" d="M124.13,187c0-5,3.76-11.88,9-11.88,2.65,0,4.24,2,4.24,4.68,0,4.4-3.44,12.36-9.18,12.36C126,192.18,124.13,190.06,124.13,187Zm11.68-7.8a2,2,0,0,0-2-2.24c-1.66,0-3.76,1.52-5.74,4.76a13.54,13.54,0,0,0-2.3,6.48,1.88,1.88,0,0,0,1.82,2C131.73,190.26,135.8,181.86,135.8,179.22Z"/><path class="cls-2" d="M139.45,191.78c-.28,0-.44-.16-.36-.36l2.22-6.48a71.42,71.42,0,0,0,1.94-7,.63.63,0,0,0-.67-.6c-.79,0-2.57,1.8-3.13,2.48a.21.21,0,0,1-.32,0l-.4-.4a.24.24,0,0,1,0-.32c.83-1.24,3.21-4,5.9-4,.79,0,1.11.68,1.11,1.4a31.35,31.35,0,0,1-1.42,5.68l.2.08c1.07-2.24,4.23-7.16,6.45-7.16a1.71,1.71,0,0,1,1.86,1.8,1.77,1.77,0,0,1-1.54,1.84,1.28,1.28,0,0,1-1-.4,1.22,1.22,0,0,0-1-.48c-1.07,0-3.29,3.44-4.87,6.08a14.9,14.9,0,0,0-1.54,3.48l-1.31,4c-.08.28-.2.28-.51.28Z"/><path class="cls-2" d="M151.83,188.26c0-3.36,2.18-7.56,5.07-10.44,1.27-1.28,3.4-2.68,5.3-2.68a2.13,2.13,0,0,1,2.26,2.12c0,2-1.46,4-3.68,5.2A16,16,0,0,1,155,184.1a11,11,0,0,0-.51,3.68,2.31,2.31,0,0,0,2.06,2.52,5.77,5.77,0,0,0,4.51-2.84c.08-.12.2-.2.36,0l.44.36c.2.12.2.24,0,.36-1,1.4-3.36,4-6.41,4C152.94,192.18,151.83,190.9,151.83,188.26Zm3.52-5.32c1.38.12,6.57-1.56,6.57-4.52,0-.8-.4-1.52-1.27-1.52C158.13,176.9,155.67,181.5,155.36,182.94Z"/><path class="cls-2" d="M174.24,165.14c0,.88-1.39,4-1.9,5.08l0,.08c.83-.56,3.72-3.4,4.63-3.4a1.12,1.12,0,0,1,1.07,1.2c0,.32-.12.88-1.58,1.32-.83.24-3.21.8-4.12,1v.12c.2,0,4.08,1.16,4.39,1.32s.67.36.67.72a1.86,1.86,0,0,1-1.58,1.52c-1,0-2.1-1.56-3.52-3.36l-.08.08c0,.16.36,4,.28,4.56a1.38,1.38,0,0,1-1.42,1.32c-.79,0-1-.44-1-.88,0-.88,1.31-3.68,1.9-5l-.08-.08c-1.35,1.2-3.72,3.52-4.67,3.52a1,1,0,0,1-1-1,1.57,1.57,0,0,1,1-1.36c.47-.24,4.51-1.36,4.71-1.36v-.08c-.2,0-3.64-1-3.92-1.08s-1-.36-1-1a1.5,1.5,0,0,1,1.35-1.44c1,0,2.22,1.68,3.72,3.36l0-.08c0-.12-.4-4-.32-4.6a1.43,1.43,0,0,1,1.42-1.24C174,164.38,174.24,164.66,174.24,165.14Z"/><ellipse class="cls-1" cx="1442.91" cy="114.57" rx="9.16" ry="9.26"/><ellipse class="cls-1" cx="1385.61" cy="114.57" rx="9.16" ry="9.25"/><ellipse class="cls-1" cx="1423.05" cy="114.57" rx="9.16" ry="9.25"/><ellipse class="cls-1" cx="1366.89" cy="114.57" rx="9.16" ry="9.25"/><ellipse class="cls-1" cx="1404.33" cy="114.57" rx="9.16" ry="9.25"/><ellipse class="cls-1" cx="1442.91" cy="114.57" rx="9.16" ry="9.26"/><ellipse class="cls-1" cx="1385.61" cy="114.57" rx="9.16" ry="9.25"/><ellipse class="cls-1" cx="1423.05" cy="114.57" rx="9.16" ry="9.25"/><ellipse class="cls-1" cx="1366.89" cy="114.57" rx="9.16" ry="9.25"/><ellipse class="cls-1" cx="1404.33" cy="114.57" rx="9.16" ry="9.25"/><ellipse class="cls-1" cx="1442.91" cy="114.57" rx="9.16" ry="9.26"/><ellipse class="cls-1" cx="1385.61" cy="114.57" rx="9.16" ry="9.25"/><ellipse class="cls-1" cx="1423.05" cy="114.57" rx="9.16" ry="9.25"/><ellipse class="cls-1" cx="1366.89" cy="114.57" rx="9.16" ry="9.25"/><ellipse class="cls-1" cx="1404.33" cy="114.57" rx="9.16" ry="9.25"/><ellipse class="cls-1" cx="1442.91" cy="114.57" rx="9.16" ry="9.26"/><ellipse class="cls-1" cx="1385.61" cy="114.57" rx="9.16" ry="9.25"/><ellipse class="cls-1" cx="1423.05" cy="114.57" rx="9.16" ry="9.25"/><ellipse class="cls-1" cx="1366.89" cy="114.57" rx="9.16" ry="9.25"/><ellipse class="cls-1" cx="1404.33" cy="114.57" rx="9.16" ry="9.25"/><ellipse class="cls-1" cx="1442.91" cy="114.57" rx="9.16" ry="9.26"/><ellipse class="cls-1" cx="1385.61" cy="114.57" rx="9.16" ry="9.25"/><ellipse class="cls-1" cx="1423.05" cy="114.57" rx="9.16" ry="9.25"/><ellipse class="cls-1" cx="1366.89" cy="114.57" rx="9.16" ry="9.25"/><ellipse class="cls-1" cx="1404.33" cy="114.57" rx="9.16" ry="9.25"/><ellipse class="cls-1" cx="1536.93" cy="114.57" rx="9.16" ry="9.26"/><ellipse class="cls-1" cx="1480.77" cy="114.57" rx="9.16" ry="9.25"/><ellipse class="cls-1" cx="1518.21" cy="114.57" rx="9.16" ry="9.25"/><ellipse class="cls-1" cx="1462.05" cy="114.57" rx="9.16" ry="9.25"/><ellipse class="cls-1" cx="1499.49" cy="114.57" rx="9.16" ry="9.25"/><ellipse class="cls-1" cx="1536.93" cy="114.57" rx="9.16" ry="9.26"/><ellipse class="cls-1" cx="1480.77" cy="114.57" rx="9.16" ry="9.25"/><ellipse class="cls-1" cx="1518.21" cy="114.57" rx="9.16" ry="9.25"/><ellipse class="cls-1" cx="1462.05" cy="114.57" rx="9.16" ry="9.25"/><ellipse class="cls-1" cx="1499.49" cy="114.57" rx="9.16" ry="9.25"/><ellipse class="cls-1" cx="1536.93" cy="114.57" rx="9.16" ry="9.26"/><ellipse class="cls-1" cx="1480.77" cy="114.57" rx="9.16" ry="9.25"/><ellipse class="cls-1" cx="1518.21" cy="114.57" rx="9.16" ry="9.25"/><ellipse class="cls-1" cx="1462.05" cy="114.57" rx="9.16" ry="9.25"/><ellipse class="cls-1" cx="1499.49" cy="114.57" rx="9.16" ry="9.25"/><ellipse class="cls-1" cx="1536.93" cy="114.57" rx="9.16" ry="9.26"/><ellipse class="cls-1" cx="1480.77" cy="114.57" rx="9.16" ry="9.25"/><ellipse class="cls-1" cx="1518.21" cy="114.57" rx="9.16" ry="9.25"/><ellipse class="cls-1" cx="1462.05" cy="114.57" rx="9.16" ry="9.25"/><ellipse class="cls-1" cx="1499.49" cy="114.57" rx="9.16" ry="9.25"/><ellipse class="cls-1" cx="1536.93" cy="136.62" rx="9.16" ry="9.26"/><ellipse class="cls-1" cx="1480.77" cy="136.62" rx="9.16" ry="9.25"/><ellipse class="cls-1" cx="1518.21" cy="136.62" rx="9.16" ry="9.25"/><ellipse class="cls-1" cx="1462.05" cy="136.62" rx="9.16" ry="9.25"/><ellipse class="cls-1" cx="1499.49" cy="136.62" rx="9.16" ry="9.25"/><ellipse class="cls-1" cx="1442.91" cy="136.62" rx="9.16" ry="9.26"/><ellipse class="cls-1" cx="1385.61" cy="136.62" rx="9.16" ry="9.25"/><ellipse class="cls-1" cx="1423.05" cy="136.62" rx="9.16" ry="9.25"/><ellipse class="cls-1" cx="1366.89" cy="136.62" rx="9.16" ry="9.25"/><ellipse class="cls-1" cx="1404.33" cy="136.62" rx="9.16" ry="9.25"/><ellipse class="cls-1" cx="1442.91" cy="136.62" rx="9.16" ry="9.26"/><ellipse class="cls-1" cx="1385.61" cy="136.62" rx="9.16" ry="9.25"/><ellipse class="cls-1" cx="1423.05" cy="136.62" rx="9.16" ry="9.25"/><ellipse class="cls-1" cx="1366.89" cy="136.62" rx="9.16" ry="9.25"/><ellipse class="cls-1" cx="1404.33" cy="136.62" rx="9.16" ry="9.25"/><ellipse class="cls-1" cx="1442.91" cy="136.62" rx="9.16" ry="9.26"/><ellipse class="cls-1" cx="1385.61" cy="136.62" rx="9.16" ry="9.25"/><ellipse class="cls-1" cx="1423.05" cy="136.62" rx="9.16" ry="9.25"/><ellipse class="cls-1" cx="1366.89" cy="136.62" rx="9.16" ry="9.25"/><ellipse class="cls-1" cx="1404.33" cy="136.62" rx="9.16" ry="9.25"/><ellipse class="cls-1" cx="1442.91" cy="136.62" rx="9.16" ry="9.26"/><ellipse class="cls-1" cx="1385.61" cy="136.62" rx="9.16" ry="9.25"/><ellipse class="cls-1" cx="1423.05" cy="136.62" rx="9.16" ry="9.25"/><ellipse class="cls-1" cx="1366.89" cy="136.62" rx="9.16" ry="9.25"/><ellipse class="cls-1" cx="1404.33" cy="136.62" rx="9.16" ry="9.25"/><ellipse class="cls-1" cx="1442.91" cy="136.62" rx="9.16" ry="9.26"/><ellipse class="cls-1" cx="1385.61" cy="136.62" rx="9.16" ry="9.25"/><ellipse class="cls-1" cx="1423.05" cy="136.62" rx="9.16" ry="9.25"/><ellipse class="cls-1" cx="1366.89" cy="136.62" rx="9.16" ry="9.25"/><ellipse class="cls-1" cx="1404.33" cy="136.62" rx="9.16" ry="9.25"/><ellipse class="cls-1" cx="1536.93" cy="136.62" rx="9.16" ry="9.26"/><ellipse class="cls-1" cx="1480.77" cy="136.62" rx="9.16" ry="9.25"/><ellipse class="cls-1" cx="1518.21" cy="136.62" rx="9.16" ry="9.25"/><ellipse class="cls-1" cx="1462.05" cy="136.62" rx="9.16" ry="9.25"/><ellipse class="cls-1" cx="1499.49" cy="136.62" rx="9.16" ry="9.25"/><ellipse class="cls-1" cx="1536.93" cy="136.62" rx="9.16" ry="9.26"/><ellipse class="cls-1" cx="1480.77" cy="136.62" rx="9.16" ry="9.25"/><ellipse class="cls-1" cx="1518.21" cy="136.62" rx="9.16" ry="9.25"/><ellipse class="cls-1" cx="1462.05" cy="136.62" rx="9.16" ry="9.25"/><ellipse class="cls-1" cx="1499.49" cy="136.62" rx="9.16" ry="9.25"/><ellipse class="cls-1" cx="1536.93" cy="136.62" rx="9.16" ry="9.26"/><ellipse class="cls-1" cx="1480.77" cy="136.62" rx="9.16" ry="9.25"/><ellipse class="cls-1" cx="1518.21" cy="136.62" rx="9.16" ry="9.25"/><ellipse class="cls-1" cx="1462.05" cy="136.62" rx="9.16" ry="9.25"/><ellipse class="cls-1" cx="1499.49" cy="136.62" rx="9.16" ry="9.25"/><ellipse class="cls-1" cx="1536.93" cy="136.62" rx="9.16" ry="9.26"/><ellipse class="cls-1" cx="1480.77" cy="136.62" rx="9.16" ry="9.25"/><ellipse class="cls-1" cx="1518.21" cy="136.62" rx="9.16" ry="9.25"/><ellipse class="cls-1" cx="1462.05" cy="136.62" rx="9.16" ry="9.25"/><ellipse class="cls-1" cx="1499.49" cy="136.62" rx="9.16" ry="9.25"/><ellipse class="cls-1" cx="1480.77" cy="159.82" rx="9.16" ry="9.25"/><ellipse class="cls-1" cx="1518.21" cy="159.82" rx="9.16" ry="9.25"/><ellipse class="cls-1" cx="1462.05" cy="159.82" rx="9.16" ry="9.25"/><ellipse class="cls-1" cx="1499.49" cy="159.82" rx="9.16" ry="9.25"/><ellipse class="cls-1" cx="1442.91" cy="159.83" rx="9.16" ry="9.26"/><ellipse class="cls-1" cx="1385.61" cy="159.82" rx="9.16" ry="9.25"/><ellipse class="cls-1" cx="1423.05" cy="159.82" rx="9.16" ry="9.25"/><ellipse class="cls-1" cx="1366.89" cy="159.82" rx="9.16" ry="9.25"/><ellipse class="cls-1" cx="1404.33" cy="159.82" rx="9.16" ry="9.25"/><ellipse class="cls-1" cx="1442.91" cy="159.83" rx="9.16" ry="9.26"/><ellipse class="cls-1" cx="1385.61" cy="159.82" rx="9.16" ry="9.25"/><ellipse class="cls-1" cx="1423.05" cy="159.82" rx="9.16" ry="9.25"/><ellipse class="cls-1" cx="1366.89" cy="159.82" rx="9.16" ry="9.25"/><ellipse class="cls-1" cx="1404.33" cy="159.82" rx="9.16" ry="9.25"/><ellipse class="cls-1" cx="1442.91" cy="159.83" rx="9.16" ry="9.26"/><ellipse class="cls-1" cx="1385.61" cy="159.82" rx="9.16" ry="9.25"/><ellipse class="cls-1" cx="1423.05" cy="159.82" rx="9.16" ry="9.25"/><ellipse class="cls-1" cx="1366.89" cy="159.82" rx="9.16" ry="9.25"/><ellipse class="cls-1" cx="1404.33" cy="159.82" rx="9.16" ry="9.25"/><ellipse class="cls-1" cx="1442.91" cy="159.83" rx="9.16" ry="9.26"/><ellipse class="cls-1" cx="1385.61" cy="159.82" rx="9.16" ry="9.25"/><ellipse class="cls-1" cx="1423.05" cy="159.82" rx="9.16" ry="9.25"/><ellipse class="cls-1" cx="1366.89" cy="159.82" rx="9.16" ry="9.25"/><ellipse class="cls-1" cx="1404.33" cy="159.82" rx="9.16" ry="9.25"/><ellipse class="cls-1" cx="1442.91" cy="159.83" rx="9.16" ry="9.26"/><ellipse class="cls-1" cx="1385.61" cy="159.82" rx="9.16" ry="9.25"/><ellipse class="cls-1" cx="1423.05" cy="159.82" rx="9.16" ry="9.25"/><ellipse class="cls-1" cx="1366.89" cy="159.82" rx="9.16" ry="9.25"/><ellipse class="cls-1" cx="1404.33" cy="159.82" rx="9.16" ry="9.25"/><ellipse class="cls-1" cx="1480.77" cy="159.82" rx="9.16" ry="9.25"/><ellipse class="cls-1" cx="1518.21" cy="159.82" rx="9.16" ry="9.25"/><ellipse class="cls-1" cx="1462.05" cy="159.82" rx="9.16" ry="9.25"/><ellipse class="cls-1" cx="1499.49" cy="159.82" rx="9.16" ry="9.25"/><ellipse class="cls-1" cx="1480.77" cy="159.82" rx="9.16" ry="9.25"/><ellipse class="cls-1" cx="1518.21" cy="159.82" rx="9.16" ry="9.25"/><ellipse class="cls-1" cx="1462.05" cy="159.82" rx="9.16" ry="9.25"/><ellipse class="cls-1" cx="1499.49" cy="159.82" rx="9.16" ry="9.25"/><ellipse class="cls-1" cx="1480.77" cy="159.82" rx="9.16" ry="9.25"/><ellipse class="cls-1" cx="1518.21" cy="159.82" rx="9.16" ry="9.25"/><ellipse class="cls-1" cx="1462.05" cy="159.82" rx="9.16" ry="9.25"/><ellipse class="cls-1" cx="1499.49" cy="159.82" rx="9.16" ry="9.25"/><ellipse class="cls-1" cx="1480.77" cy="159.82" rx="9.16" ry="9.25"/><ellipse class="cls-1" cx="1518.21" cy="159.82" rx="9.16" ry="9.25"/><ellipse class="cls-1" cx="1462.05" cy="159.82" rx="9.16" ry="9.25"/><ellipse class="cls-1" cx="1499.49" cy="159.82" rx="9.16" ry="9.25"/><path class="cls-4" d="M1104.44,236.75c-1.18,0-2.42.07-3.46.14s-1.87.14-2.15.14-.55,0-.76-.42a.78.78,0,0,1,.21-1.05c3.26-3.08,9.35-8.47,14.89-14.49s8.73-11.41,8.52-17.5-3.95-9.94-8.93-9.87c-5.89.07-8.1,4.69-9.28,6.79-.28.49-.48.56-.83.35l-1-.42c-.21-.14-.28-.35,0-1,1.11-2.73,4.5-10.5,13.85-10.5a12.44,12.44,0,0,1,12.12,12.74c0,6-2.35,11-8.59,18.06-4.71,5.46-10.18,9.52-13.23,12.25h14.06c4.71,0,6.51-3.29,8-5.88.35-.63.55-.7,1.25-.35s.83.56.55,1l-4.5,10.92c-.35.77.21.77-1,.77-.62,0-.62-.07-.9-.7-.42-.91-1.73-1-3.81-1Z"/><path class="cls-4" d="M1153.06,236.75c-.62,0-.83-.14-.83-.77V223.66H1132.9c-.62,0-1-.28-1-.84s.21-.7.69-1.4l22.51-31.36c.42-.56,1-1.12,1.52-1.12s.9.49.9,2.1v28h5.61c.49,0,.83.14.83.56V223c0,.42-.21.7-1.11.7h-5.33v12.11c0,.77-.14,1-1,1Zm-.76-36.61c0-1.12-.69-1.33-1.32-.42l-12.74,17.78c-.83,1.19-.76,1.89.49,1.89h13.57Z"/><ellipse class="cls-4" cx="1280.23" cy="114.57" rx="9.16" ry="9.26"/><ellipse class="cls-4" cx="1224.08" cy="114.57" rx="9.16" ry="9.25"/><ellipse class="cls-4" cx="1261.52" cy="114.57" rx="9.16" ry="9.25"/><ellipse class="cls-4" cx="1205.36" cy="114.57" rx="9.16" ry="9.25"/><ellipse class="cls-4" cx="1242.79" cy="114.57" rx="9.16" ry="9.25"/><ellipse class="cls-4" cx="1186.21" cy="114.57" rx="9.16" ry="9.26"/><ellipse class="cls-4" cx="1128.92" cy="114.57" rx="9.16" ry="9.25"/><ellipse class="cls-4" cx="1166.36" cy="114.57" rx="9.16" ry="9.25"/><ellipse class="cls-4" cx="1110.2" cy="114.57" rx="9.16" ry="9.25"/><ellipse class="cls-4" cx="1147.64" cy="114.57" rx="9.16" ry="9.25"/><ellipse class="cls-4" cx="1186.21" cy="114.57" rx="9.16" ry="9.26"/><ellipse class="cls-4" cx="1128.92" cy="114.57" rx="9.16" ry="9.25"/><ellipse class="cls-4" cx="1166.36" cy="114.57" rx="9.16" ry="9.25"/><ellipse class="cls-4" cx="1110.2" cy="114.57" rx="9.16" ry="9.25"/><ellipse class="cls-4" cx="1147.64" cy="114.57" rx="9.16" ry="9.25"/><ellipse class="cls-4" cx="1186.21" cy="114.57" rx="9.16" ry="9.26"/><ellipse class="cls-4" cx="1128.92" cy="114.57" rx="9.16" ry="9.25"/><ellipse class="cls-4" cx="1166.36" cy="114.57" rx="9.16" ry="9.25"/><ellipse class="cls-4" cx="1110.2" cy="114.57" rx="9.16" ry="9.25"/><ellipse class="cls-4" cx="1147.64" cy="114.57" rx="9.16" ry="9.25"/><ellipse class="cls-4" cx="1186.21" cy="114.57" rx="9.16" ry="9.26"/><ellipse class="cls-4" cx="1128.92" cy="114.57" rx="9.16" ry="9.25"/><ellipse class="cls-4" cx="1166.36" cy="114.57" rx="9.16" ry="9.25"/><ellipse class="cls-4" cx="1110.2" cy="114.57" rx="9.16" ry="9.25"/><ellipse class="cls-4" cx="1147.64" cy="114.57" rx="9.16" ry="9.25"/><ellipse class="cls-4" cx="1186.21" cy="114.57" rx="9.16" ry="9.26"/><ellipse class="cls-4" cx="1128.92" cy="114.57" rx="9.16" ry="9.25"/><ellipse class="cls-4" cx="1166.36" cy="114.57" rx="9.16" ry="9.25"/><ellipse class="cls-4" cx="1110.2" cy="114.57" rx="9.16" ry="9.25"/><ellipse class="cls-4" cx="1147.64" cy="114.57" rx="9.16" ry="9.25"/><ellipse class="cls-4" cx="1280.23" cy="114.57" rx="9.16" ry="9.26"/><ellipse class="cls-4" cx="1224.08" cy="114.57" rx="9.16" ry="9.25"/><ellipse class="cls-4" cx="1261.52" cy="114.57" rx="9.16" ry="9.25"/><ellipse class="cls-4" cx="1205.36" cy="114.57" rx="9.16" ry="9.25"/><ellipse class="cls-4" cx="1242.79" cy="114.57" rx="9.16" ry="9.25"/><ellipse class="cls-4" cx="1280.23" cy="114.57" rx="9.16" ry="9.26"/><ellipse class="cls-4" cx="1224.08" cy="114.57" rx="9.16" ry="9.25"/><ellipse class="cls-4" cx="1261.52" cy="114.57" rx="9.16" ry="9.25"/><ellipse class="cls-4" cx="1205.36" cy="114.57" rx="9.16" ry="9.25"/><ellipse class="cls-4" cx="1242.79" cy="114.57" rx="9.16" ry="9.25"/><ellipse class="cls-4" cx="1280.23" cy="114.57" rx="9.16" ry="9.26"/><ellipse class="cls-4" cx="1224.08" cy="114.57" rx="9.16" ry="9.25"/><ellipse class="cls-4" cx="1261.52" cy="114.57" rx="9.16" ry="9.25"/><ellipse class="cls-4" cx="1205.36" cy="114.57" rx="9.16" ry="9.25"/><ellipse class="cls-4" cx="1242.79" cy="114.57" rx="9.16" ry="9.25"/><ellipse class="cls-4" cx="1280.23" cy="114.57" rx="9.16" ry="9.26"/><ellipse class="cls-4" cx="1224.08" cy="114.57" rx="9.16" ry="9.25"/><ellipse class="cls-4" cx="1261.52" cy="114.57" rx="9.16" ry="9.25"/><ellipse class="cls-4" cx="1205.36" cy="114.57" rx="9.16" ry="9.25"/><ellipse class="cls-4" cx="1242.79" cy="114.57" rx="9.16" ry="9.25"/><g class="cls-5"><ellipse class="cls-4" cx="1280.23" cy="136.62" rx="9.16" ry="9.26"/><ellipse class="cls-4" cx="1224.08" cy="136.62" rx="9.16" ry="9.25"/><ellipse class="cls-4" cx="1261.52" cy="136.62" rx="9.16" ry="9.25"/><ellipse class="cls-4" cx="1205.36" cy="136.62" rx="9.16" ry="9.25"/><ellipse class="cls-4" cx="1242.79" cy="136.62" rx="9.16" ry="9.25"/><ellipse class="cls-4" cx="1186.21" cy="136.62" rx="9.16" ry="9.26"/><ellipse class="cls-4" cx="1128.92" cy="136.62" rx="9.16" ry="9.25"/><ellipse class="cls-4" cx="1166.36" cy="136.62" rx="9.16" ry="9.25"/><ellipse class="cls-4" cx="1110.2" cy="136.62" rx="9.16" ry="9.25"/><ellipse class="cls-4" cx="1147.64" cy="136.62" rx="9.16" ry="9.25"/><ellipse class="cls-4" cx="1186.21" cy="136.62" rx="9.16" ry="9.26"/><ellipse class="cls-4" cx="1128.92" cy="136.62" rx="9.16" ry="9.25"/><ellipse class="cls-4" cx="1166.36" cy="136.62" rx="9.16" ry="9.25"/><ellipse class="cls-4" cx="1110.2" cy="136.62" rx="9.16" ry="9.25"/><ellipse class="cls-4" cx="1147.64" cy="136.62" rx="9.16" ry="9.25"/><ellipse class="cls-4" cx="1186.21" cy="136.62" rx="9.16" ry="9.26"/><ellipse class="cls-4" cx="1128.92" cy="136.62" rx="9.16" ry="9.25"/><ellipse class="cls-4" cx="1166.36" cy="136.62" rx="9.16" ry="9.25"/><ellipse class="cls-4" cx="1110.2" cy="136.62" rx="9.16" ry="9.25"/><ellipse class="cls-4" cx="1147.64" cy="136.62" rx="9.16" ry="9.25"/><ellipse class="cls-4" cx="1186.21" cy="136.62" rx="9.16" ry="9.26"/><ellipse class="cls-4" cx="1128.92" cy="136.62" rx="9.16" ry="9.25"/><ellipse class="cls-4" cx="1166.36" cy="136.62" rx="9.16" ry="9.25"/><ellipse class="cls-4" cx="1110.2" cy="136.62" rx="9.16" ry="9.25"/><ellipse class="cls-4" cx="1147.64" cy="136.62" rx="9.16" ry="9.25"/><ellipse class="cls-4" cx="1186.21" cy="136.62" rx="9.16" ry="9.26"/><ellipse class="cls-4" cx="1128.92" cy="136.62" rx="9.16" ry="9.25"/><ellipse class="cls-4" cx="1166.36" cy="136.62" rx="9.16" ry="9.25"/><ellipse class="cls-4" cx="1110.2" cy="136.62" rx="9.16" ry="9.25"/><ellipse class="cls-4" cx="1147.64" cy="136.62" rx="9.16" ry="9.25"/><ellipse class="cls-4" cx="1280.23" cy="136.62" rx="9.16" ry="9.26"/><ellipse class="cls-4" cx="1224.08" cy="136.62" rx="9.16" ry="9.25"/><ellipse class="cls-4" cx="1261.52" cy="136.62" rx="9.16" ry="9.25"/><ellipse class="cls-4" cx="1205.36" cy="136.62" rx="9.16" ry="9.25"/><ellipse class="cls-4" cx="1242.79" cy="136.62" rx="9.16" ry="9.25"/><ellipse class="cls-4" cx="1280.23" cy="136.62" rx="9.16" ry="9.26"/><ellipse class="cls-4" cx="1224.08" cy="136.62" rx="9.16" ry="9.25"/><ellipse class="cls-4" cx="1261.52" cy="136.62" rx="9.16" ry="9.25"/><ellipse class="cls-4" cx="1205.36" cy="136.62" rx="9.16" ry="9.25"/><ellipse class="cls-4" cx="1242.79" cy="136.62" rx="9.16" ry="9.25"/><ellipse class="cls-4" cx="1280.23" cy="136.62" rx="9.16" ry="9.26"/><ellipse class="cls-4" cx="1224.08" cy="136.62" rx="9.16" ry="9.25"/><ellipse class="cls-4" cx="1261.52" cy="136.62" rx="9.16" ry="9.25"/><ellipse class="cls-4" cx="1205.36" cy="136.62" rx="9.16" ry="9.25"/><ellipse class="cls-4" cx="1242.79" cy="136.62" rx="9.16" ry="9.25"/><ellipse class="cls-4" cx="1280.23" cy="136.62" rx="9.16" ry="9.26"/><ellipse class="cls-4" cx="1224.08" cy="136.62" rx="9.16" ry="9.25"/><ellipse class="cls-4" cx="1261.52" cy="136.62" rx="9.16" ry="9.25"/><ellipse class="cls-4" cx="1205.36" cy="136.62" rx="9.16" ry="9.25"/><ellipse class="cls-4" cx="1242.79" cy="136.62" rx="9.16" ry="9.25"/></g><ellipse class="cls-4" cx="1128.92" cy="159.82" rx="9.16" ry="9.25"/><ellipse class="cls-4" cx="1166.36" cy="159.82" rx="9.16" ry="9.25"/><ellipse class="cls-4" cx="1110.2" cy="159.82" rx="9.16" ry="9.25"/><ellipse class="cls-4" cx="1147.64" cy="159.82" rx="9.16" ry="9.25"/><ellipse class="cls-4" cx="1128.92" cy="159.82" rx="9.16" ry="9.25"/><ellipse class="cls-4" cx="1166.36" cy="159.82" rx="9.16" ry="9.25"/><ellipse class="cls-4" cx="1110.2" cy="159.82" rx="9.16" ry="9.25"/><ellipse class="cls-4" cx="1147.64" cy="159.82" rx="9.16" ry="9.25"/><ellipse class="cls-4" cx="1128.92" cy="159.82" rx="9.16" ry="9.25"/><ellipse class="cls-4" cx="1166.36" cy="159.82" rx="9.16" ry="9.25"/><ellipse class="cls-4" cx="1110.2" cy="159.82" rx="9.16" ry="9.25"/><ellipse class="cls-4" cx="1147.64" cy="159.82" rx="9.16" ry="9.25"/><ellipse class="cls-4" cx="1128.92" cy="159.82" rx="9.16" ry="9.25"/><ellipse class="cls-4" cx="1166.36" cy="159.82" rx="9.16" ry="9.25"/><ellipse class="cls-4" cx="1110.2" cy="159.82" rx="9.16" ry="9.25"/><ellipse class="cls-4" cx="1147.64" cy="159.82" rx="9.16" ry="9.25"/><ellipse class="cls-4" cx="1128.92" cy="159.82" rx="9.16" ry="9.25"/><ellipse class="cls-4" cx="1166.36" cy="159.82" rx="9.16" ry="9.25"/><ellipse class="cls-4" cx="1110.2" cy="159.82" rx="9.16" ry="9.25"/><ellipse class="cls-4" cx="1147.64" cy="159.82" rx="9.16" ry="9.25"/><path class="cls-6" d="M896.63,211.47c0-.91.07-4.2,0-9.73-.07-2.38-.35-3.92-1.66-3.92a10.62,10.62,0,0,0-2.77.56L887.35,200c-.28.07-.55.07-.69-.21l-.55-1.26c-.14-.28-.07-.56.42-.84l14.34-8.33a2,2,0,0,1,1-.42c.42,0,.49.42.49,1s-.21,11.62-.21,20.65v2.94c0,.84.07,15.68.07,16.59.07,3.64.35,4.13,4.85,4.13h2.49c.48,0,.69.21.69.56v1.61c0,.42-.14.56-.62.56s-10-.21-10.67-.21-10.39.21-10.74.21-.55-.14-.55-.56v-1.75c0-.35.42-.42,1-.42h3.19c4.5,0,4.64-.21,4.78-3.92.07-.91.07-15.05.07-16.31Z"/><path class="cls-6" d="M916,215.74c0-16,6.58-26.81,15.44-26.81,10.18,0,14.89,13.37,14.89,24,0,16-5.89,24.85-14.82,24.85C920.32,237.8,916,224.22,916,215.74Zm22.23,14.56c1.52-3.36,2.15-8.68,2.15-18.9s-3.46-20-9.35-20c-2.7,0-4.64,1-6.23,4.2-2.49,4.9-2.77,13.09-2.77,18.9,0,6.65.83,11.55,2.35,14.77,2.15,4.62,4.78,6,7.2,6C933.76,235.28,936.39,234.44,938.26,230.31Z"/><ellipse class="cls-6" cx="1063.56" cy="114.57" rx="9.16" ry="9.26"/><ellipse class="cls-6" cx="1007.41" cy="114.57" rx="9.16" ry="9.25"/><ellipse class="cls-6" cx="1044.85" cy="114.57" rx="9.16" ry="9.25"/><ellipse class="cls-6" cx="988.69" cy="114.57" rx="9.16" ry="9.25"/><ellipse class="cls-6" cx="1026.12" cy="114.57" rx="9.16" ry="9.25"/><ellipse class="cls-6" cx="969.54" cy="114.57" rx="9.16" ry="9.26"/><ellipse class="cls-6" cx="912.25" cy="114.57" rx="9.16" ry="9.25"/><ellipse class="cls-6" cx="949.69" cy="114.57" rx="9.16" ry="9.25"/><ellipse class="cls-6" cx="893.53" cy="114.57" rx="9.16" ry="9.25"/><ellipse class="cls-6" cx="930.96" cy="114.57" rx="9.16" ry="9.25"/><ellipse class="cls-6" cx="969.54" cy="114.57" rx="9.16" ry="9.26"/><ellipse class="cls-6" cx="912.25" cy="114.57" rx="9.16" ry="9.25"/><ellipse class="cls-6" cx="949.69" cy="114.57" rx="9.16" ry="9.25"/><ellipse class="cls-6" cx="893.53" cy="114.57" rx="9.16" ry="9.25"/><ellipse class="cls-6" cx="930.96" cy="114.57" rx="9.16" ry="9.25"/><ellipse class="cls-6" cx="969.54" cy="114.57" rx="9.16" ry="9.26"/><ellipse class="cls-6" cx="912.25" cy="114.57" rx="9.16" ry="9.25"/><ellipse class="cls-6" cx="949.69" cy="114.57" rx="9.16" ry="9.25"/><ellipse class="cls-6" cx="893.53" cy="114.57" rx="9.16" ry="9.25"/><ellipse class="cls-6" cx="930.96" cy="114.57" rx="9.16" ry="9.25"/><ellipse class="cls-6" cx="969.54" cy="114.57" rx="9.16" ry="9.26"/><ellipse class="cls-6" cx="912.25" cy="114.57" rx="9.16" ry="9.25"/><ellipse class="cls-6" cx="949.69" cy="114.57" rx="9.16" ry="9.25"/><ellipse class="cls-6" cx="893.53" cy="114.57" rx="9.16" ry="9.25"/><ellipse class="cls-6" cx="930.96" cy="114.57" rx="9.16" ry="9.25"/><ellipse class="cls-6" cx="969.54" cy="114.57" rx="9.16" ry="9.26"/><ellipse class="cls-6" cx="912.25" cy="114.57" rx="9.16" ry="9.25"/><ellipse class="cls-6" cx="949.69" cy="114.57" rx="9.16" ry="9.25"/><ellipse class="cls-6" cx="893.53" cy="114.57" rx="9.16" ry="9.25"/><ellipse class="cls-6" cx="930.96" cy="114.57" rx="9.16" ry="9.25"/><ellipse class="cls-6" cx="1063.56" cy="114.57" rx="9.16" ry="9.26"/><ellipse class="cls-6" cx="1007.41" cy="114.57" rx="9.16" ry="9.25"/><ellipse class="cls-6" cx="1044.85" cy="114.57" rx="9.16" ry="9.25"/><ellipse class="cls-6" cx="988.69" cy="114.57" rx="9.16" ry="9.25"/><ellipse class="cls-6" cx="1026.12" cy="114.57" rx="9.16" ry="9.25"/><ellipse class="cls-6" cx="1063.56" cy="114.57" rx="9.16" ry="9.26"/><ellipse class="cls-6" cx="1007.41" cy="114.57" rx="9.16" ry="9.25"/><ellipse class="cls-6" cx="1044.85" cy="114.57" rx="9.16" ry="9.25"/><ellipse class="cls-6" cx="988.69" cy="114.57" rx="9.16" ry="9.25"/><ellipse class="cls-6" cx="1026.12" cy="114.57" rx="9.16" ry="9.25"/><ellipse class="cls-6" cx="1063.56" cy="114.57" rx="9.16" ry="9.26"/><ellipse class="cls-6" cx="1007.41" cy="114.57" rx="9.16" ry="9.25"/><ellipse class="cls-6" cx="1044.85" cy="114.57" rx="9.16" ry="9.25"/><ellipse class="cls-6" cx="988.69" cy="114.57" rx="9.16" ry="9.25"/><ellipse class="cls-6" cx="1026.12" cy="114.57" rx="9.16" ry="9.25"/><ellipse class="cls-6" cx="1063.56" cy="114.57" rx="9.16" ry="9.26"/><ellipse class="cls-6" cx="1007.41" cy="114.57" rx="9.16" ry="9.25"/><ellipse class="cls-6" cx="1044.85" cy="114.57" rx="9.16" ry="9.25"/><ellipse class="cls-6" cx="988.69" cy="114.57" rx="9.16" ry="9.25"/><ellipse class="cls-6" cx="1026.12" cy="114.57" rx="9.16" ry="9.25"/><path class="cls-7" d="M683.83,211.47c0-.91.07-4.2,0-9.73-.07-2.38-.35-3.92-1.66-3.92a10.62,10.62,0,0,0-2.77.56L674.55,200c-.28.07-.55.07-.69-.21l-.55-1.26c-.14-.28-.07-.56.42-.84l14.34-8.33a2,2,0,0,1,1-.42c.42,0,.49.42.49,1s-.21,11.62-.21,20.65v2.94c0,.84.07,15.68.07,16.59.07,3.64.35,4.13,4.85,4.13h2.49c.48,0,.69.21.69.56v1.61c0,.42-.14.56-.62.56s-10-.21-10.67-.21-10.39.21-10.74.21-.55-.14-.55-.56v-1.75c0-.35.42-.42,1-.42H679c4.5,0,4.64-.21,4.78-3.92.07-.91.07-15.05.07-16.31Z"/><path class="cls-7" d="M703.22,215.74c0-16,6.58-26.81,15.44-26.81,10.18,0,14.89,13.37,14.89,24,0,16-5.89,24.85-14.82,24.85C707.52,237.8,703.22,224.22,703.22,215.74Zm22.23,14.56c1.52-3.36,2.15-8.68,2.15-18.9s-3.46-20-9.35-20c-2.7,0-4.64,1-6.23,4.2-2.49,4.9-2.77,13.09-2.77,18.9,0,6.65.83,11.55,2.35,14.77,2.15,4.62,4.78,6,7.2,6C721,235.28,723.59,234.44,725.46,230.31Z"/><ellipse class="cls-7" cx="850.76" cy="114.57" rx="9.16" ry="9.26"/><ellipse class="cls-7" cx="794.6" cy="114.57" rx="9.16" ry="9.25"/><ellipse class="cls-7" cx="832.04" cy="114.57" rx="9.16" ry="9.25"/><ellipse class="cls-7" cx="775.89" cy="114.57" rx="9.16" ry="9.25"/><ellipse class="cls-7" cx="813.32" cy="114.57" rx="9.16" ry="9.25"/><ellipse class="cls-7" cx="756.74" cy="114.57" rx="9.16" ry="9.26"/><ellipse class="cls-7" cx="699.44" cy="114.57" rx="9.16" ry="9.25"/><ellipse class="cls-7" cx="736.88" cy="114.57" rx="9.16" ry="9.25"/><ellipse class="cls-7" cx="680.73" cy="114.57" rx="9.16" ry="9.25"/><ellipse class="cls-7" cx="718.16" cy="114.57" rx="9.16" ry="9.25"/><ellipse class="cls-7" cx="756.74" cy="114.57" rx="9.16" ry="9.26"/><ellipse class="cls-7" cx="699.44" cy="114.57" rx="9.16" ry="9.25"/><ellipse class="cls-7" cx="736.88" cy="114.57" rx="9.16" ry="9.25"/><ellipse class="cls-7" cx="680.73" cy="114.57" rx="9.16" ry="9.25"/><ellipse class="cls-7" cx="718.16" cy="114.57" rx="9.16" ry="9.25"/><ellipse class="cls-7" cx="756.74" cy="114.57" rx="9.16" ry="9.26"/><ellipse class="cls-7" cx="699.44" cy="114.57" rx="9.16" ry="9.25"/><ellipse class="cls-7" cx="736.88" cy="114.57" rx="9.16" ry="9.25"/><ellipse class="cls-7" cx="680.73" cy="114.57" rx="9.16" ry="9.25"/><ellipse class="cls-7" cx="718.16" cy="114.57" rx="9.16" ry="9.25"/><ellipse class="cls-7" cx="756.74" cy="114.57" rx="9.16" ry="9.26"/><ellipse class="cls-7" cx="699.44" cy="114.57" rx="9.16" ry="9.25"/><ellipse class="cls-7" cx="736.88" cy="114.57" rx="9.16" ry="9.25"/><ellipse class="cls-7" cx="680.73" cy="114.57" rx="9.16" ry="9.25"/><ellipse class="cls-7" cx="718.16" cy="114.57" rx="9.16" ry="9.25"/><ellipse class="cls-7" cx="756.74" cy="114.57" rx="9.16" ry="9.26"/><ellipse class="cls-7" cx="699.44" cy="114.57" rx="9.16" ry="9.25"/><ellipse class="cls-7" cx="736.88" cy="114.57" rx="9.16" ry="9.25"/><ellipse class="cls-7" cx="680.73" cy="114.57" rx="9.16" ry="9.25"/><ellipse class="cls-7" cx="718.16" cy="114.57" rx="9.16" ry="9.25"/><ellipse class="cls-7" cx="850.76" cy="114.57" rx="9.16" ry="9.26"/><ellipse class="cls-7" cx="794.6" cy="114.57" rx="9.16" ry="9.25"/><ellipse class="cls-7" cx="832.04" cy="114.57" rx="9.16" ry="9.25"/><ellipse class="cls-7" cx="775.89" cy="114.57" rx="9.16" ry="9.25"/><ellipse class="cls-7" cx="813.32" cy="114.57" rx="9.16" ry="9.25"/><ellipse class="cls-7" cx="850.76" cy="114.57" rx="9.16" ry="9.26"/><ellipse class="cls-7" cx="794.6" cy="114.57" rx="9.16" ry="9.25"/><ellipse class="cls-7" cx="832.04" cy="114.57" rx="9.16" ry="9.25"/><ellipse class="cls-7" cx="775.89" cy="114.57" rx="9.16" ry="9.25"/><ellipse class="cls-7" cx="813.32" cy="114.57" rx="9.16" ry="9.25"/><ellipse class="cls-7" cx="850.76" cy="114.57" rx="9.16" ry="9.26"/><ellipse class="cls-7" cx="794.6" cy="114.57" rx="9.16" ry="9.25"/><ellipse class="cls-7" cx="832.04" cy="114.57" rx="9.16" ry="9.25"/><ellipse class="cls-7" cx="775.89" cy="114.57" rx="9.16" ry="9.25"/><ellipse class="cls-7" cx="813.32" cy="114.57" rx="9.16" ry="9.25"/><ellipse class="cls-7" cx="850.76" cy="114.57" rx="9.16" ry="9.26"/><ellipse class="cls-7" cx="794.6" cy="114.57" rx="9.16" ry="9.25"/><ellipse class="cls-7" cx="832.04" cy="114.57" rx="9.16" ry="9.25"/><ellipse class="cls-7" cx="775.89" cy="114.57" rx="9.16" ry="9.25"/><ellipse class="cls-7" cx="813.32" cy="114.57" rx="9.16" ry="9.25"/><path class="cls-8" d="M467.75,206.64a36.45,36.45,0,0,1,7.9.77c6.79,1.82,10.67,6.72,10.67,13a17.23,17.23,0,0,1-17.45,17.36c-5.12,0-9-1.89-9-3.92a1.67,1.67,0,0,1,1.52-1.82,7.14,7.14,0,0,1,3.46,1.4,12.33,12.33,0,0,0,5.47,1.33A11,11,0,0,0,481.11,224c0-4.9-1.59-8.75-6.09-10.71a18.61,18.61,0,0,0-9-1.54,1.6,1.6,0,0,1-1.25-.14c-.35-.14-.42-.35-.35-.77l2.49-19.74c.07-.84.21-1.12,1.11-1.12h14.82c2.42,0,3-1.19,4.22-3.5.21-.42.42-.49.83-.35.76.35,1.11.42,1,.84l-2.49,7c-.48,1.12-.83,1.4-3,1.4H469Z"/><ellipse class="cls-8" cx="549.74" cy="114.57" rx="9.16" ry="9.26"/><ellipse class="cls-8" cx="492.44" cy="114.57" rx="9.16" ry="9.25"/><ellipse class="cls-8" cx="529.88" cy="114.57" rx="9.16" ry="9.25"/><ellipse class="cls-8" cx="473.73" cy="114.57" rx="9.16" ry="9.25"/><ellipse class="cls-8" cx="511.16" cy="114.57" rx="9.16" ry="9.25"/><ellipse class="cls-8" cx="549.74" cy="114.57" rx="9.16" ry="9.26"/><ellipse class="cls-8" cx="492.44" cy="114.57" rx="9.16" ry="9.25"/><ellipse class="cls-8" cx="529.88" cy="114.57" rx="9.16" ry="9.25"/><ellipse class="cls-8" cx="473.73" cy="114.57" rx="9.16" ry="9.25"/><ellipse class="cls-8" cx="511.16" cy="114.57" rx="9.16" ry="9.25"/><ellipse class="cls-8" cx="549.74" cy="114.57" rx="9.16" ry="9.26"/><ellipse class="cls-8" cx="492.44" cy="114.57" rx="9.16" ry="9.25"/><ellipse class="cls-8" cx="529.88" cy="114.57" rx="9.16" ry="9.25"/><ellipse class="cls-8" cx="473.73" cy="114.57" rx="9.16" ry="9.25"/><ellipse class="cls-8" cx="511.16" cy="114.57" rx="9.16" ry="9.25"/><ellipse class="cls-8" cx="549.74" cy="114.57" rx="9.16" ry="9.26"/><ellipse class="cls-8" cx="492.44" cy="114.57" rx="9.16" ry="9.25"/><ellipse class="cls-8" cx="529.88" cy="114.57" rx="9.16" ry="9.25"/><ellipse class="cls-8" cx="473.73" cy="114.57" rx="9.16" ry="9.25"/><ellipse class="cls-8" cx="511.16" cy="114.57" rx="9.16" ry="9.25"/><ellipse class="cls-8" cx="549.74" cy="114.57" rx="9.16" ry="9.26"/><ellipse class="cls-8" cx="492.44" cy="114.57" rx="9.16" ry="9.25"/><ellipse class="cls-8" cx="529.88" cy="114.57" rx="9.16" ry="9.25"/><ellipse class="cls-8" cx="473.73" cy="114.57" rx="9.16" ry="9.25"/><ellipse class="cls-8" cx="511.16" cy="114.57" rx="9.16" ry="9.25"/><path class="cls-9" d="M258.34,211.47c0-.91.07-4.2,0-9.73-.07-2.38-.35-3.92-1.66-3.92a10.62,10.62,0,0,0-2.77.56L249.06,200c-.28.07-.55.07-.69-.21l-.55-1.26c-.14-.28-.07-.56.42-.84l14.34-8.33a2,2,0,0,1,1-.42c.42,0,.49.42.49,1s-.21,11.62-.21,20.65v2.94c0,.84.07,15.68.07,16.59.07,3.64.35,4.13,4.85,4.13h2.49c.48,0,.69.21.69.56v1.61c0,.42-.14.56-.62.56s-10-.21-10.67-.21-10.39.21-10.74.21-.55-.14-.55-.56v-1.75c0-.35.42-.42,1-.42h3.19c4.5,0,4.64-.21,4.78-3.92.07-.91.07-15.05.07-16.31Z"/><ellipse class="cls-4" cx="253.44" cy="114.57" rx="9.16" ry="9.25"/><ellipse class="cls-4" cx="253.44" cy="114.57" rx="9.16" ry="9.25"/><ellipse class="cls-4" cx="253.44" cy="114.57" rx="9.16" ry="9.25"/><ellipse class="cls-4" cx="253.44" cy="114.57" rx="9.16" ry="9.25"/><ellipse class="cls-9" cx="253.44" cy="114.57" rx="9.16" ry="9.25"/><line class="cls-10" y1="81.74" x2="186.41" y2="81.74"/><path class="cls-2" d="M268.52,57.74V31.34h-.12l-8,26.4H258l-8-26.4h-.12v26.4H247V28.87h4.91l7.28,23.36h.08l7.16-23.36h5V57.74Z"/><path class="cls-2" d="M275.73,40.94a8.41,8.41,0,0,1,7.72-4.4c3.48,0,7.12,1.68,7.12,6.24V53.26a16.26,16.26,0,0,0,.48,4.48h-2.93l-.32-2.88A9.16,9.16,0,0,1,281,58.14c-3.17,0-5.86-1.92-5.86-5.72,0-4.56,3.44-6.84,12.59-8.48V42.82c0-2.76-1.78-3.8-4.24-3.8a5.32,5.32,0,0,0-5.26,3.24Zm12,5.56c-6.53,1.16-9.74,3.08-9.74,6a3.39,3.39,0,0,0,3.4,3.2c2.06,0,4.67-1.52,6.33-3.44Z"/><path class="cls-2" d="M295.46,36.94V30.1h2.85v6.84h4.75v2.48h-4.75v14.8c0,1,.67,1.44,2.33,1.44a15.88,15.88,0,0,0,2.53-.2v2.36a13,13,0,0,1-3.32.32c-3.09,0-4.39-.8-4.39-3.44V39.42h-3.36V36.94Z"/><path class="cls-2" d="M308.57,28.87V39.74h.08a8.42,8.42,0,0,1,6.09-3.2c3,0,5.94,1.6,5.94,6.08V57.74h-2.85v-15c0-2.76-1.31-3.68-3.36-3.68s-4.59,1.76-5.9,3.16V57.74h-2.85V28.87Z"/><path class="cls-2" d="M340.65,53.3c-1.35,2.36-3.25,4.84-7.92,4.84s-8.95-3.2-8.95-10.8c0-6.72,3.33-10.8,8.39-10.8,4.27,0,7.84,2.8,7.84,9.44V47.9H326.64c0,4.56,2.69,7.76,6.1,7.76a6.36,6.36,0,0,0,5.7-3.52Zm-3.48-7.88c0-3.84-1.82-6.4-4.91-6.4-3.44,0-5.3,2.56-5.54,6.4Z"/><path class="cls-2" d="M343.3,57.74V36.94h2.85V39.7l.16-.16a8.33,8.33,0,0,1,6-3,5.34,5.34,0,0,1,5.26,3.28,9.19,9.19,0,0,1,6.53-3.28c2.73,0,5.66,1.16,5.66,6.32V57.74h-2.85V42.86c0-2.8-1.38-3.84-3.21-3.84-2.53,0-4.2,1.68-5.74,3.2V57.74H355.1V42.86c0-2.8-1.39-3.84-3.21-3.84-2.53,0-4.2,1.68-5.74,3.2V57.74Z"/><path class="cls-2" d="M373.2,40.94a8.41,8.41,0,0,1,7.72-4.4c3.48,0,7.12,1.68,7.12,6.24V53.26a16.26,16.26,0,0,0,.48,4.48h-2.93l-.32-2.88a9.16,9.16,0,0,1-6.81,3.28c-3.17,0-5.86-1.92-5.86-5.72,0-4.56,3.44-6.84,12.59-8.48V42.82c0-2.76-1.78-3.8-4.24-3.8a5.32,5.32,0,0,0-5.26,3.24Zm12,5.56c-6.53,1.16-9.74,3.08-9.74,6a3.39,3.39,0,0,0,3.4,3.2c2.06,0,4.67-1.52,6.33-3.44Z"/><path class="cls-2" d="M392.92,36.94V30.1h2.85v6.84h4.75v2.48h-4.75v14.8c0,1,.67,1.44,2.33,1.44a15.88,15.88,0,0,0,2.53-.2v2.36a13,13,0,0,1-3.32.32c-3.09,0-4.39-.8-4.39-3.44V39.42h-3.36V36.94Z"/><path class="cls-2" d="M406.3,28.46V31.9h-2.85V28.46Zm-2.85,8.48h2.85v20.8h-2.85Z"/><path class="cls-2" d="M423,43.14c-.79-2.52-2.42-4.12-4.87-4.12-3.52,0-5.58,3-5.58,8.32s2.06,8.32,5.58,8.32c2.61,0,4.08-.88,5.66-3.84l2.3,1c-2.06,3.52-3.88,5.28-8,5.28-5.15,0-8.43-4.08-8.43-10.8s3.29-10.8,8.43-10.8c4.24,0,6.21,2.4,7.52,5.64Z"/><path class="cls-2" d="M429.74,52.46a6.93,6.93,0,0,0,5.9,3.2c3.09,0,4.43-1.68,4.43-3.44,0-5.28-12.19-2.48-12-10.08.12-3.6,2.85-5.64,6.81-5.6a9,9,0,0,1,7,3.64l-2,1.76c-1.58-2-3.09-2.92-5.3-2.92-2.41,0-3.72,1.24-3.72,3.08,0,4.52,12,2.2,12,10,0,4-3.48,6.08-7.2,6.08a10.22,10.22,0,0,1-8.23-4Z"/><path class="cls-2" d="M886.82,28.87h10.53c5,0,8,3.2,8,7.12,0,3.16-1.39,5.44-4.83,6.64l0,.08a7.33,7.33,0,0,1,5.5,7.28c0,4.32-2.61,7.76-10.37,7.76h-8.87ZM890,41.26h5.54c4.79,0,6.65-2.48,6.65-4.92,0-3.24-1.74-4.76-5.38-4.76H890ZM890,55h5.94c4.67,0,7-1.6,7-5.2S900,44,895.45,44H890Z"/><path class="cls-2" d="M913.19,28.46V31.9h-2.85V28.46Zm-2.85,8.48h2.85v20.8h-2.85Z"/><path class="cls-2" d="M924.93,58.14c-5.62,0-8.43-4.8-8.43-10.8s2.81-10.8,8.43-10.8,8.43,4.8,8.43,10.8S930.55,58.14,924.93,58.14Zm0-19.12c-3.4,0-5.58,3-5.58,8.32s2.18,8.32,5.58,8.32,5.58-3,5.58-8.32S928.34,39,924.93,39Z"/><path class="cls-2" d="M939.57,28.87V57.74h-2.85V28.87Z"/><path class="cls-2" d="M951.31,58.14c-5.62,0-8.43-4.8-8.43-10.8s2.81-10.8,8.43-10.8,8.43,4.8,8.43,10.8S956.93,58.14,951.31,58.14Zm0-19.12c-3.4,0-5.58,3-5.58,8.32s2.18,8.32,5.58,8.32,5.58-3,5.58-8.32S954.71,39,951.31,39Z"/><path class="cls-2" d="M978.76,39a7.89,7.89,0,0,0-3.17.56A7.06,7.06,0,0,1,977,43.82a7.34,7.34,0,0,1-7.52,7.28,11.25,11.25,0,0,1-3.64-.56,1.93,1.93,0,0,0-1.62,1.92,1.5,1.5,0,0,0,1.7,1.52c9.74,0,12.86,1.76,12.86,5.84,0,3-3,5.6-9.38,5.6-5.78,0-8.87-1.6-8.87-5,0-2.08,1.27-3.08,3.48-4.24a3.33,3.33,0,0,1-2.57-3c0-1.8,1.19-2.56,2.77-3.56a7,7,0,0,1-2.81-5.8c0-4.4,3.4-7.28,7.8-7.28A8.25,8.25,0,0,1,974.33,38a9.91,9.91,0,0,1,4.43-1.84ZM969,56.86c-4.47,0-5.74,2-5.74,3.48s1,2.6,6.65,2.6c3.4,0,6.17-1,6.21-3S974,56.86,969,56.86ZM969.1,39c-3.25,0-5,2.08-5,4.8s2.14,4.8,5.3,4.8A4.51,4.51,0,0,0,974.33,44C974.33,40.94,972.58,39,969.1,39Z"/><path class="cls-2" d="M996.05,36.94l-7.24,22.64c-1.5,4.64-4.24,5.84-6.93,5.84a11.2,11.2,0,0,1-2.06-.24V62.82a13.52,13.52,0,0,0,1.54.12c1.74,0,4.39-.4,5.38-5l-7.17-21h3l5.54,15.88h.08L993,36.94Z"/><path class="cls-2" d="M484.16,28.87v2.72h-14v9.68h9.93V44h-9.93V55H485v2.72H467V28.87Z"/><path class="cls-2" d="M490.91,36.94v2.8H491a8.42,8.42,0,0,1,6.09-3.2c3,0,5.94,1.6,5.94,6.08V57.74h-2.85v-15c0-2.76-1.31-3.68-3.36-3.68s-4.59,1.76-5.9,3.16V57.74h-2.85V36.94Z"/><path class="cls-2" d="M523.6,39a7.89,7.89,0,0,0-3.17.56,7.07,7.07,0,0,1,1.42,4.24,7.34,7.34,0,0,1-7.52,7.28,11.25,11.25,0,0,1-3.64-.56,1.93,1.93,0,0,0-1.62,1.92,1.5,1.5,0,0,0,1.7,1.52c9.74,0,12.86,1.76,12.86,5.84,0,3-3,5.6-9.38,5.6-5.78,0-8.87-1.6-8.87-5,0-2.08,1.27-3.08,3.48-4.24a3.33,3.33,0,0,1-2.57-3c0-1.8,1.19-2.56,2.77-3.56a7,7,0,0,1-2.81-5.8c0-4.4,3.4-7.28,7.8-7.28A8.25,8.25,0,0,1,519.17,38a9.92,9.92,0,0,1,4.43-1.84Zm-9.78,17.84c-4.47,0-5.74,2-5.74,3.48s.95,2.6,6.65,2.6c3.4,0,6.17-1,6.21-3S518.85,56.86,513.82,56.86ZM513.94,39c-3.25,0-5,2.08-5,4.8s2.14,4.8,5.3,4.8A4.51,4.51,0,0,0,519.17,44C519.17,40.94,517.42,39,513.94,39Z"/><path class="cls-2" d="M529,28.46V31.9h-2.85V28.46Zm-2.85,8.48H529v20.8h-2.85Z"/><path class="cls-2" d="M536.55,36.94v2.8h.08a8.42,8.42,0,0,1,6.09-3.2c3,0,5.94,1.6,5.94,6.08V57.74h-2.85v-15c0-2.76-1.31-3.68-3.36-3.68s-4.59,1.76-5.9,3.16V57.74H533.7V36.94Z"/><path class="cls-2" d="M568.63,53.3c-1.35,2.36-3.25,4.84-7.92,4.84s-8.95-3.2-8.95-10.8c0-6.72,3.33-10.8,8.39-10.8,4.27,0,7.84,2.8,7.84,9.44V47.9H554.62c0,4.56,2.69,7.76,6.1,7.76a6.36,6.36,0,0,0,5.7-3.52Zm-3.48-7.88c0-3.84-1.82-6.4-4.91-6.4-3.44,0-5.3,2.56-5.54,6.4Z"/><path class="cls-2" d="M586.83,53.3c-1.35,2.36-3.25,4.84-7.92,4.84S570,54.94,570,47.34c0-6.72,3.33-10.8,8.39-10.8,4.27,0,7.84,2.8,7.84,9.44V47.9H572.82c0,4.56,2.69,7.76,6.1,7.76a6.36,6.36,0,0,0,5.7-3.52Zm-3.48-7.88c0-3.84-1.82-6.4-4.91-6.4-3.44,0-5.3,2.56-5.54,6.4Z"/><path class="cls-2" d="M589.26,36.94h2.85v4.12h.08c1.58-2.84,3.29-4.44,6.69-4.44V39.5c-3.56.08-5.42,2.44-6.77,6.72V57.74h-2.85Z"/><path class="cls-2" d="M604.25,28.46V31.9H601.4V28.46Zm-2.85,8.48h2.85v20.8H601.4Z"/><path class="cls-2" d="M611.81,36.94v2.8h.08a8.42,8.42,0,0,1,6.09-3.2c3,0,5.94,1.6,5.94,6.08V57.74h-2.85v-15c0-2.76-1.31-3.68-3.36-3.68s-4.59,1.76-5.9,3.16V57.74H609V36.94Z"/><path class="cls-2" d="M644.5,39a7.89,7.89,0,0,0-3.17.56,7.07,7.07,0,0,1,1.42,4.24,7.34,7.34,0,0,1-7.52,7.28,11.25,11.25,0,0,1-3.64-.56A1.93,1.93,0,0,0,630,52.46a1.5,1.5,0,0,0,1.7,1.52c9.74,0,12.86,1.76,12.86,5.84,0,3-3,5.6-9.38,5.6-5.78,0-8.87-1.6-8.87-5,0-2.08,1.27-3.08,3.48-4.24a3.33,3.33,0,0,1-2.57-3c0-1.8,1.19-2.56,2.77-3.56a7,7,0,0,1-2.81-5.8c0-4.4,3.4-7.28,7.8-7.28A8.25,8.25,0,0,1,640.06,38a9.92,9.92,0,0,1,4.43-1.84Zm-9.78,17.84c-4.47,0-5.74,2-5.74,3.48s.95,2.6,6.65,2.6c3.4,0,6.17-1,6.21-3S639.75,56.86,634.72,56.86ZM634.84,39c-3.25,0-5,2.08-5,4.8s2.14,4.8,5.3,4.8A4.51,4.51,0,0,0,640.06,44C640.06,40.94,638.32,39,634.84,39Z"/><path class="cls-2" d="M670.7,57.74l8.79-28.87h4.71L693,57.74h-3.33l-2.69-9H676.72l-2.69,9ZM677.51,46h8.67L682.06,31.1h-.44Z"/><path class="cls-2" d="M696.2,52.46a6.93,6.93,0,0,0,5.9,3.2c3.09,0,4.43-1.68,4.43-3.44,0-5.28-12.19-2.48-12-10.08.12-3.6,2.85-5.64,6.81-5.6a9,9,0,0,1,7,3.64l-2,1.76c-1.58-2-3.09-2.92-5.3-2.92-2.41,0-3.72,1.24-3.72,3.08,0,4.52,12,2.2,12,10,0,4-3.48,6.08-7.2,6.08a10.22,10.22,0,0,1-8.23-4Z"/><path class="cls-2" d="M713.25,36.94V30.1h2.85v6.84h4.75v2.48H716.1v14.8c0,1,.67,1.44,2.33,1.44a15.88,15.88,0,0,0,2.53-.2v2.36a13,13,0,0,1-3.32.32c-3.09,0-4.39-.8-4.39-3.44V39.42h-3.36V36.94Z"/><path class="cls-2" d="M723.15,36.94H726v4.12h.08c1.58-2.84,3.29-4.44,6.69-4.44V39.5c-3.56.08-5.42,2.44-6.77,6.72V57.74h-2.85Z"/><path class="cls-2" d="M741.57,58.14c-5.62,0-8.43-4.8-8.43-10.8s2.81-10.8,8.43-10.8,8.43,4.8,8.43,10.8S747.19,58.14,741.57,58.14Zm0-19.12c-3.4,0-5.58,3-5.58,8.32s2.18,8.32,5.58,8.32,5.58-3,5.58-8.32S745,39,741.57,39Z"/><path class="cls-2" d="M755.9,36.94v2.8H756a8.42,8.42,0,0,1,6.09-3.2c3,0,5.94,1.6,5.94,6.08V57.74h-2.85v-15c0-2.76-1.31-3.68-3.36-3.68s-4.59,1.76-5.9,3.16V57.74H753V36.94Z"/><path class="cls-2" d="M779.49,58.14c-5.62,0-8.43-4.8-8.43-10.8s2.81-10.8,8.43-10.8,8.43,4.8,8.43,10.8S785.11,58.14,779.49,58.14Zm0-19.12c-3.4,0-5.58,3-5.58,8.32s2.18,8.32,5.58,8.32,5.58-3,5.58-8.32S782.89,39,779.49,39Z"/><path class="cls-2" d="M790.83,57.74V36.94h2.85V39.7l.16-.16a8.33,8.33,0,0,1,6-3,5.34,5.34,0,0,1,5.26,3.28,9.19,9.19,0,0,1,6.53-3.28c2.73,0,5.66,1.16,5.66,6.32V57.74h-2.85V42.86c0-2.8-1.38-3.84-3.21-3.84-2.53,0-4.2,1.68-5.74,3.2V57.74h-2.85V42.86c0-2.8-1.39-3.84-3.21-3.84-2.53,0-4.2,1.68-5.74,3.2V57.74Z"/><path class="cls-2" d="M835.2,36.94,828,59.58c-1.5,4.64-4.24,5.84-6.93,5.84a11.2,11.2,0,0,1-2.06-.24V62.82a13.52,13.52,0,0,0,1.54.12c1.74,0,4.39-.4,5.38-5l-7.17-21h3l5.54,15.88h.08l4.83-15.88Z"/><path class="cls-2" d="M1104.77,57.74V28.87h10c6.1,0,8.75,3.52,8.75,8.08,0,4.8-3.29,7.92-10.49,7.92h-5.07V57.74Zm3.17-15.6h5.38c5.26,0,7-1.84,7-5.28s-2-5.28-6.29-5.28h-6.09Z"/><path class="cls-2" d="M1129.24,28.87V39.74h.08a8.42,8.42,0,0,1,6.09-3.2c3,0,5.94,1.6,5.94,6.08V57.74h-2.85v-15c0-2.76-1.31-3.68-3.36-3.68s-4.59,1.76-5.9,3.16V57.74h-2.85V28.87Z"/><path class="cls-2" d="M1159.35,36.94l-7.24,22.64c-1.5,4.64-4.24,5.84-6.93,5.84a11.2,11.2,0,0,1-2.06-.24V62.82a13.52,13.52,0,0,0,1.54.12c1.74,0,4.39-.4,5.38-5l-7.17-21h3l5.54,15.88h.08l4.83-15.88Z"/><path class="cls-2" d="M1164,53.34v4.4h-3.88v-4.4Z"/><path class="cls-2" d="M1196,36.22a6.5,6.5,0,0,0-6.65-5c-3.33,0-5.3,1.6-5.34,4.48-.08,6.32,16.07,4.72,16.07,14,0,4.2-2.34,8.48-9.62,8.48-6.25,0-8.71-4.08-10.21-7.52l2.89-1c1.15,3,3.29,5.84,7.48,5.84s6.29-2.24,6.29-5.2c0-7.36-16.07-5.2-16.07-14.32,0-4.16,3.44-7.44,8.59-7.44,4.43,0,7.92,2.36,9.42,7.12Z"/><path class="cls-2" d="M1215.7,43.14c-.79-2.52-2.42-4.12-4.87-4.12-3.52,0-5.58,3-5.58,8.32s2.06,8.32,5.58,8.32c2.61,0,4.08-.88,5.66-3.84l2.3,1c-2.06,3.52-3.88,5.28-8,5.28-5.15,0-8.43-4.08-8.43-10.8s3.29-10.8,8.43-10.8c4.24,0,6.21,2.4,7.52,5.64Z"/><path class="cls-2" d="M1224.68,28.46V31.9h-2.85V28.46Zm-2.85,8.48h2.85v20.8h-2.85Z"/><path class="cls-2" d="M1244.91,53.3c-1.35,2.36-3.25,4.84-7.92,4.84s-8.95-3.2-8.95-10.8c0-6.72,3.33-10.8,8.39-10.8,4.27,0,7.84,2.8,7.84,9.44V47.9h-13.38c0,4.56,2.69,7.76,6.1,7.76a6.36,6.36,0,0,0,5.7-3.52Zm-3.48-7.88c0-3.84-1.82-6.4-4.91-6.4-3.44,0-5.3,2.56-5.54,6.4Z"/><path class="cls-2" d="M1250.54,36.94v2.8h.08a8.42,8.42,0,0,1,6.09-3.2c3,0,5.94,1.6,5.94,6.08V57.74h-2.85v-15c0-2.76-1.31-3.68-3.36-3.68s-4.59,1.76-5.9,3.16V57.74h-2.85V36.94Z"/><path class="cls-2" d="M1279.06,43.14c-.79-2.52-2.42-4.12-4.87-4.12-3.52,0-5.58,3-5.58,8.32s2.06,8.32,5.58,8.32c2.61,0,4.08-.88,5.66-3.84l2.3,1c-2.06,3.52-3.88,5.28-8,5.28-5.15,0-8.43-4.08-8.43-10.8s3.29-10.8,8.43-10.8c4.24,0,6.21,2.4,7.52,5.64Z"/><path class="cls-2" d="M1300.48,53.3c-1.35,2.36-3.25,4.84-7.92,4.84s-8.95-3.2-8.95-10.8c0-6.72,3.33-10.8,8.39-10.8,4.27,0,7.84,2.8,7.84,9.44V47.9h-13.38c0,4.56,2.69,7.76,6.09,7.76a6.36,6.36,0,0,0,5.7-3.52ZM1297,45.42c0-3.84-1.82-6.4-4.91-6.4-3.44,0-5.3,2.56-5.54,6.4Z"/><path class="cls-2" d="M1304,52.46a6.93,6.93,0,0,0,5.9,3.2c3.09,0,4.43-1.68,4.43-3.44,0-5.28-12.19-2.48-12-10.08.12-3.6,2.85-5.64,6.81-5.6a9,9,0,0,1,7,3.64l-2,1.76c-1.58-2-3.09-2.92-5.3-2.92-2.41,0-3.72,1.24-3.72,3.08,0,4.52,12,2.2,12,10,0,4-3.48,6.08-7.2,6.08a10.22,10.22,0,0,1-8.23-4Z"/><path class="cls-2" d="M1384.23,57.74V31.34h-.12l-8,26.4h-2.45l-8-26.4h-.12v26.4h-2.85V28.87h4.91l7.28,23.36h.08l7.16-23.36h5V57.74Z"/><path class="cls-2" d="M1407.8,53.3c-1.35,2.36-3.25,4.84-7.92,4.84s-8.95-3.2-8.95-10.8c0-6.72,3.33-10.8,8.39-10.8,4.27,0,7.84,2.8,7.84,9.44V47.9h-13.38c0,4.56,2.69,7.76,6.09,7.76a6.36,6.36,0,0,0,5.7-3.52Zm-3.48-7.88c0-3.84-1.82-6.4-4.91-6.4-3.44,0-5.3,2.56-5.54,6.4Z"/><path class="cls-2" d="M1426,28.87V53.18a29.3,29.3,0,0,0,.16,4.56h-2.61l-.4-2a6.75,6.75,0,0,1-5.42,2.44c-3.64,0-8.43-2.48-8.43-10.8,0-8.08,4.79-10.8,8.27-10.8a8.81,8.81,0,0,1,5.42,2.32l.16.08V28.87Zm-2.85,13c-1.54-1.72-3.48-2.88-5.18-2.88-3.33,0-5.82,2.2-5.82,8.48,0,5.28,2.26,8.16,5.82,8.16,1.82,0,3.17-.8,5.18-2.8Z"/><path class="cls-2" d="M1433.56,28.46V31.9h-2.85V28.46Zm-2.85,8.48h2.85v20.8h-2.85Z"/><path class="cls-2" d="M1450.28,43.14c-.79-2.52-2.42-4.12-4.87-4.12-3.52,0-5.58,3-5.58,8.32s2.06,8.32,5.58,8.32c2.61,0,4.08-.88,5.66-3.84l2.3,1c-2.06,3.52-3.88,5.28-8,5.28-5.15,0-8.43-4.08-8.43-10.8s3.29-10.8,8.43-10.8c4.24,0,6.21,2.4,7.52,5.64Z"/><path class="cls-2" d="M1459.25,28.46V31.9h-2.85V28.46Zm-2.85,8.48h2.85v20.8h-2.85Z"/><path class="cls-2" d="M1466.81,36.94v2.8h.08a8.42,8.42,0,0,1,6.09-3.2c3,0,5.94,1.6,5.94,6.08V57.74h-2.85v-15c0-2.76-1.31-3.68-3.36-3.68s-4.59,1.76-5.9,3.16V57.74H1464V36.94Z"/><path class="cls-2" d="M1498.89,53.3c-1.35,2.36-3.25,4.84-7.92,4.84s-8.95-3.2-8.95-10.8c0-6.72,3.33-10.8,8.39-10.8,4.27,0,7.84,2.8,7.84,9.44V47.9h-13.38c0,4.56,2.69,7.76,6.09,7.76a6.36,6.36,0,0,0,5.7-3.52Zm-3.48-7.88c0-3.84-1.82-6.4-4.91-6.4-3.44,0-5.3,2.56-5.54,6.4Z"/><line class="cls-11" x1="244.32" y1="81.74" x2="430.74" y2="81.74"/><line class="cls-12" x1="466.54" y1="81.74" x2="652.95" y2="81.74"/><line class="cls-13" x1="673.52" y1="81.74" x2="859.93" y2="81.74"/><line class="cls-14" x1="886.34" y1="81.74" x2="1072.75" y2="81.74"/><line class="cls-15" x1="1102.99" y1="81.74" x2="1289.41" y2="81.74"/><line class="cls-16" x1="1360.37" y1="81.74" x2="1546.78" y2="81.74"/></g></svg>