<?xml version="1.0" encoding="utf-8"?>
<!-- Generator: Adobe Illustrator 19.2.0, SVG Export Plug-In . SVG Version: 6.00 Build 0)  -->
<svg version="1.1" id="Layer_1" xmlns="http://www.w3.org/2000/svg" xmlns:xlink="http://www.w3.org/1999/xlink" x="0px" y="0px"
	 viewBox="0 0 450 80" style="enable-background:new 0 0 450 80;" xml:space="preserve">
<title>mavericks-title</title>
<g>
	<g>
		<path d="M39.1,42.3c-1.2,0-2.1-0.9-2.1-2.1c0,0,0-0.1,0-0.1V16.6l-9.9,18.5c-0.3,0.8-1.1,1.4-2,1.4c-0.9-0.1-1.6-0.6-2-1.4
			l-9.9-18.3v23.3c0,1.2-0.9,2.2-2.1,2.2c-0.1,0-0.1,0-0.2,0c-1.2,0-2.1-0.9-2.2-2c0,0,0-0.1,0-0.1V8.2C8.7,7,9.5,6,10.7,5.9
			c0.1,0,0.3,0,0.4,0c0.8,0,1.5,0.5,1.8,1.3L25,29.7L37.2,7.2c0.3-0.8,1.1-1.3,2-1.3c1.2,0,2.1,0.9,2.2,2c0,0.1,0,0.2,0,0.3v31.9
			c0,1.2-0.9,2.2-2.1,2.2C39.2,42.3,39.2,42.3,39.1,42.3z"/>
		<path d="M71.7,42.2c-2,0-3.7-1.1-4.5-2.9c-2.3,2.5-5.6,3.9-9,3.8c-8.3,0-12.8-6.8-12.8-14.4S50,14.3,58.2,14.3
			c3.2-0.1,6.2,1.1,8.4,3.4v-0.2c-0.1-1.2,0.7-2.2,1.9-2.3c0.1,0,0.2,0,0.2,0c1.1-0.2,2.1,0.6,2.3,1.7c0,0.1,0,0.3,0,0.4V37
			c-0.1,0.4,0.3,0.9,0.7,0.9c1.2-0.1,2.2,0.8,2.3,2c0.1,1.2-0.8,2.2-2,2.3C71.9,42.2,71.8,42.2,71.7,42.2z M58.2,18.6
			c-5.1,0-8.4,4-8.4,10s3.3,10.1,8.4,10.1s8.4-4,8.4-10.1S63.3,18.6,58.2,18.6z"/>
		<path d="M97.4,18.1l-9.3,22.3c-0.3,1-1.2,1.7-2.2,1.7c-1-0.1-1.9-0.8-2.2-1.7l-9.3-22.3c-0.1-0.3-0.1-0.6-0.2-0.9
			c0.1-1.2,1.1-2.1,2.2-2.1c0.9,0,1.6,0.5,1.9,1.3l7.4,17.9l7.4-17.8c0.5-1.1,1.7-1.7,2.9-1.2c0.8,0.3,1.3,1.1,1.4,1.9
			C97.6,17.5,97.5,17.8,97.4,18.1z"/>
		<path d="M122.7,30.9h-18.9c0.7,4.8,3.8,7.8,8.3,7.8c2.3,0.1,4.6-0.9,6.1-2.7c0.4-0.5,1-0.8,1.6-0.8c1.2,0.1,2.2,1,2.3,2.3
			c0,0.6-0.2,1.1-1.2,2.1c-2.3,2.2-5.5,3.5-8.7,3.4c-8.2,0-12.8-6.8-12.8-14.4s4.6-14.4,12.8-14.4s12.8,6.8,12.8,14.4
			C124.9,29.8,123.9,30.8,122.7,30.9C122.7,30.9,122.7,30.9,122.7,30.9z M112.1,18.6c-4.8,0-7.6,3.5-8.3,7.9h16.5
			C119.6,21.6,116.6,18.6,112.1,18.6z"/>
		<path d="M139.9,18.6c-4,0.1-7.2,3.3-7.2,7.3V40c0,1.2-0.9,2.2-2.1,2.2c-0.1,0-0.1,0-0.2,0c-1.2,0-2.1-0.9-2.1-2c0,0,0-0.1,0-0.1
			V17.3c0-1.2,0.9-2.2,2.1-2.2c0,0,0,0,0,0c1.1-0.1,2,0.7,2.2,1.7c2.1-1.7,4.6-2.6,7.3-2.6c1.2-0.1,2.2,0.8,2.3,2
			c0.1,1.2-0.8,2.2-2,2.3C140.1,18.6,140,18.6,139.9,18.6z"/>
		<path d="M145.4,11c-2,0-3.7-1.6-3.7-3.7s1.6-3.7,3.7-3.7s3.7,1.6,3.7,3.7c0,0,0,0,0,0C149.1,9.3,147.5,11,145.4,11
			C145.5,11,145.5,11,145.4,11z M145.4,42.2c-1.2,0.1-2.2-0.9-2.2-2c0,0,0-0.1,0-0.1V17.3c0-1.2,0.9-2.2,2.1-2.2c0,0,0.1,0,0.1,0
			c1.2,0,2.1,0.9,2.1,2.1c0,0,0,0.1,0,0.1v22.7c0,1.1-0.8,2.1-2,2.1C145.6,42.2,145.5,42.2,145.4,42.2z"/>
		<path d="M173.7,39.2c-2.3,2.6-5.7,4-9.1,3.9c-8.2,0-12.8-6.7-12.8-14.4s4.6-14.4,12.8-14.4c3.5-0.1,6.8,1.3,9.1,3.9
			c0.4,0.4,0.6,0.9,0.6,1.5c-0.1,1.2-1.1,2.2-2.3,2.2c-0.6,0-1.2-0.3-1.6-0.7c-1.5-1.7-3.6-2.6-5.9-2.5c-5.1,0-8.4,4-8.4,10
			s3.3,10.1,8.4,10.1c2.2,0.1,4.4-0.8,5.9-2.5c0.4-0.5,1-0.8,1.6-0.8c1.2-0.1,2.3,0.8,2.4,2C174.5,38.1,174.2,38.7,173.7,39.2z"/>
		<path d="M197.4,18.9l-7.6,7.6l7.9,12.4c0.2,0.4,0.3,0.8,0.4,1.2c-0.1,1.2-1.1,2.2-2.3,2.2c-0.7,0-1.4-0.4-1.7-1l-7.5-11.6
			l-4.3,4.3v6.1c0,1.2-1,2.2-2.2,2.2c-1.2,0-2.2-1-2.2-2.2v-32c-0.1-1.1,0.8-2.1,1.9-2.2c0.1,0,0.2,0,0.2,0c1.1-0.1,2.1,0.8,2.2,1.9
			c0,0.1,0,0.2,0,0.2v19.9l12-12c0.4-0.4,1-0.7,1.6-0.7c1.2,0,2.1,1,2.2,2.2C198,17.9,197.8,18.5,197.4,18.9z"/>
		<path d="M209.5,43.1c-2.8,0-7.5-0.9-9.9-3.8c-0.8-1-0.6-2.4,0.4-3.2c0.4-0.3,0.9-0.5,1.4-0.5c0.6,0,1.2,0.4,1.6,0.9
			c1.6,1.7,4.2,2.2,6.5,2.2c4.6,0,6.1-1.6,6.1-3.9c0-6.5-15.6-2.5-15.6-13c0-5.6,5.2-7.6,10-7.6c2.8,0,9.2,1.4,9.2,4.2
			c0,1.2-0.9,2.2-2.1,2.3c-0.6,0-1.2-0.3-1.7-0.7c-1.6-1.1-3.5-1.7-5.4-1.5c-4.2,0-5.7,1.6-5.7,3.3c0,6.1,15.6,2.1,15.6,13
			C220,40.9,214.9,43.1,209.5,43.1z"/>
		<path d="M258.6,42.3c-0.6,0-1.1-0.2-1.5-0.7l-3.7-3.7l-1.9,1.9c-4.2,4.3-11.1,4.4-15.4,0.1c-4.3-4.2-4.4-11.1-0.1-15.4
			c0.7-0.7,1.5-1.3,2.3-1.8l-1-1c-2.1-1.8-3.2-4.4-3.2-7.2c0-5.3,4.3-9.6,9.6-9.6c6.8,0,9.9,6.5,9.9,7.2c-0.1,1.2-1.1,2.2-2.3,2.2
			c-2,0-3.3-5-7.6-5c-2.8,0-5.2,2.3-5.2,5.1c0,0,0,0.1,0,0.1c0,1.5,0.6,3,1.8,4l13.2,13.2l3.5-3.5c0.4-0.4,0.9-0.7,1.5-0.8
			c1.2,0.1,2.2,1.1,2.2,2.3c0,0.6-0.2,1.2-0.6,1.6l-3.6,3.5l3.7,3.7c0.4,0.4,0.7,0.9,0.7,1.5C260.8,41.2,259.8,42.2,258.6,42.3z
			 M241.6,26c-2.6,0.9-4.4,3.3-4.4,6.1c0,3.6,2.9,6.5,6.5,6.6c1.7,0,3.3-0.7,4.5-1.9l2.1-2.1L241.6,26z"/>
		<path d="M297.6,42.2c-1.2,0.1-2.2-0.9-2.2-2c0,0,0-0.1,0-0.1V24.9h-16.8v15.1c0,1.2-1,2.2-2.2,2.2s-2.2-1-2.2-2.2v-32
			c0-1.2,1-2.2,2.2-2.2s2.2,1,2.2,2.2v12.5h16.8V8.1c0-1.2,1-2.2,2.2-2.2s2.2,1,2.2,2.2l0,0V40C299.8,41.2,298.8,42.2,297.6,42.2
			C297.6,42.2,297.6,42.2,297.6,42.2z"/>
		<path d="M327.2,30.9h-18.9c0.7,4.8,3.8,7.8,8.3,7.8c2.3,0.1,4.6-0.9,6.1-2.7c0.4-0.5,1-0.8,1.6-0.8c1.2,0,2.2,1,2.3,2.2
			c0,0.6-0.1,1.1-1.2,2.1c-2.3,2.2-5.5,3.5-8.7,3.4c-8.2,0-12.8-6.8-12.8-14.4s4.6-14.4,12.8-14.4s12.8,6.8,12.8,14.4
			C329.4,29.8,328.5,30.8,327.2,30.9C327.2,30.9,327.2,30.9,327.2,30.9z M316.6,18.6c-4.8,0-7.6,3.5-8.3,7.9h16.5
			C324.1,21.6,321.1,18.6,316.6,18.6z"/>
		<path d="M344.4,18.6c-4,0.1-7.2,3.3-7.2,7.3V40c0,1.2-0.9,2.2-2.1,2.2c-0.1,0-0.1,0-0.2,0c-1.2,0-2.1-0.9-2.1-2c0,0,0-0.1,0-0.1
			V17.3c0-1.2,0.9-2.2,2.1-2.2c0,0,0,0,0,0c1.1-0.1,2,0.7,2.2,1.7c2.1-1.7,4.6-2.6,7.3-2.6c1.2-0.1,2.2,0.8,2.3,2s-0.8,2.2-2,2.3
			C344.6,18.6,344.5,18.6,344.4,18.6z"/>
		<path d="M368.7,30.9h-18.9c0.7,4.8,3.8,7.8,8.3,7.8c2.3,0.1,4.6-0.9,6.1-2.7c0.4-0.5,1-0.8,1.6-0.8c1.2,0,2.3,1,2.3,2.3
			c0,0.6-0.1,1.1-1.2,2.1c-2.4,2.2-5.5,3.5-8.8,3.4c-8.2,0-12.8-6.8-12.8-14.4s4.6-14.4,12.8-14.4s12.8,6.8,12.8,14.4
			C370.8,29.8,369.9,30.8,368.7,30.9C368.7,30.9,368.7,30.9,368.7,30.9z M358,18.6c-4.8,0-7.6,3.5-8.3,7.9h16.5
			C365.6,21.6,362.5,18.6,358,18.6z"/>
		<path d="M382.9,42.2H382c-4.8,0-6.7-2.5-6.7-6.7v-16h-1.5c-1.2-0.1-2.1-1.1-2-2.3c0.1-1.1,0.9-2,2-2h1.5V8c-0.1-1.1,0.8-2.1,2-2.2
			c0.1,0,0.2,0,0.2,0c1.1-0.1,2.1,0.7,2.1,1.8c0,0.1,0,0.2,0,0.3v7.1h3.3c1.2,0,2.1,0.9,2.1,2.1c0,0,0,0.1,0,0.1
			c0.1,1.1-0.8,2.1-1.9,2.2c-0.1,0-0.1,0-0.2,0h-3.3v16.5c0,1.4,0.5,1.9,1.9,1.9h1.3c1.2,0,2.1,0.8,2.2,2c0,0,0,0.1,0,0.1
			c0.1,1.1-0.8,2.1-1.9,2.2C383,42.2,382.9,42.2,382.9,42.2z"/>
		<path d="M389.9,11c-2,0-3.7-1.6-3.7-3.7s1.6-3.7,3.7-3.7s3.7,1.6,3.7,3.7C393.6,9.3,392,11,389.9,11C389.9,11,389.9,11,389.9,11z
			 M389.9,42.2c-1.2,0.1-2.2-0.9-2.2-2c0,0,0-0.1,0-0.1V17.3c0-1.2,0.9-2.2,2.1-2.2c0,0,0.1,0,0.1,0c1.2,0,2.1,0.9,2.1,2.1
			c0,0,0,0.1,0,0.1v22.7c0,1.1-0.8,2.1-2,2.1C390,42.2,390,42.2,389.9,42.2z"/>
		<path d="M418.2,39.2c-2.3,2.6-5.7,4-9.1,3.9c-8.2,0-12.8-6.7-12.8-14.4s4.6-14.4,12.8-14.4c3.5-0.1,6.8,1.3,9.1,3.9
			c0.4,0.4,0.6,0.9,0.6,1.5c-0.1,1.2-1.1,2.2-2.3,2.2c-0.6,0-1.2-0.3-1.6-0.7c-1.5-1.7-3.6-2.6-5.9-2.5c-5.1,0-8.4,4-8.4,10
			s3.3,10.1,8.4,10.1c2.2,0.1,4.4-0.8,5.9-2.5c0.4-0.5,1-0.8,1.6-0.8c1.2-0.1,2.3,0.9,2.3,2.1C418.9,38.1,418.7,38.7,418.2,39.2z"/>
		<path d="M430.8,43.1c-2.8,0-7.5-0.9-9.9-3.8c-0.8-1-0.6-2.4,0.4-3.2c0.4-0.3,0.9-0.5,1.4-0.5c0.6,0,1.2,0.4,1.6,0.9
			c1.6,1.7,4.2,2.2,6.5,2.2c4.6,0,6.1-1.6,6.1-3.9c0-6.5-15.5-2.5-15.5-13c0-5.6,5.2-7.6,10-7.6c2.8,0,9.2,1.4,9.2,4.2
			c0,1.2-0.9,2.2-2.1,2.3c-0.6,0-1.2-0.3-1.7-0.7c-1.6-1.1-3.5-1.7-5.4-1.5c-4.2,0-5.7,1.6-5.7,3.3c0,6.1,15.6,2.1,15.6,13
			C441.3,40.9,436.2,43.1,430.8,43.1z"/>
	</g>
	<g>
		<path d="M36.5,71.2h-2.7c-0.4,0-0.7-0.4-0.7-0.7c0-0.3,0.3-0.7,0.7-0.7h0.7V55.5h-0.7c-0.4,0-0.7-0.3-0.7-0.7
			c0-0.3,0.3-0.7,0.7-0.7h2.7c0.4,0,0.7,0.3,0.7,0.7c0,0.3-0.2,0.7-0.7,0.7h-0.7v14.4h0.7c0.4,0,0.7,0.4,0.7,0.7
			C37.1,70.8,36.9,71.2,36.5,71.2z"/>
		<path d="M50.8,71.2c-0.3,0-0.7-0.2-0.7-0.7v-1.2c-1,1.4-2.6,2.3-4.7,2.3c-3.9,0-6-3.2-6-6.8c0-3.6,2.2-6.8,6-6.8
			c2.1,0,3.6,0.9,4.7,2.3v-5.5c0-0.4,0.4-0.7,0.7-0.7c0.3,0,0.7,0.2,0.7,0.7v15.7C51.5,71,51.2,71.2,50.8,71.2z M45.5,59.4
			c-2.8,0-4.7,2.3-4.7,5.4s1.8,5.4,4.7,5.4c2.9,0,4.7-2.3,4.7-5.4S48.4,59.4,45.5,59.4z"/>
		<path d="M65.8,65.5h-10c0.2,2.7,2,4.7,4.6,4.7c1.3,0,2.8-0.6,3.5-1.7c0.2-0.3,0.4-0.3,0.6-0.3c0.4,0,0.7,0.3,0.7,0.6
			c0,0.2,0,0.3-0.5,0.8c-1.1,1.3-2.7,1.9-4.4,1.9c-3.9,0-6-3.2-6-6.8c0-3.6,2.2-6.8,6-6.8s6,3.2,6,6.8
			C66.4,65.2,66.1,65.5,65.8,65.5z M60.4,59.4c-2.9,0-4.4,2.2-4.6,4.7H65C64.8,61.4,63,59.4,60.4,59.4z"/>
		<path d="M81.8,71.2L81.8,71.2c-0.8,0-1.9-0.4-2.4-1.9c-1,1.4-2.6,2.3-4.7,2.3c-3.9,0-6-3.2-6-6.8c0-3.6,2.2-6.8,6-6.8
			c2.1,0,3.6,0.9,4.7,2.3v-1.2c0-0.4,0.3-0.7,0.7-0.7c0.3,0,0.7,0.2,0.7,0.7v9.7c0,1.5,1.7,0.6,1.7,1.7
			C82.5,70.8,82.3,71.2,81.8,71.2z M74.8,59.4c-2.8,0-4.7,2.3-4.7,5.4s1.8,5.4,4.7,5.4c2.9,0,4.7-2.3,4.7-5.4S77.6,59.4,74.8,59.4z"
			/>
		<path d="M88.7,71.7c-1.4,0-3.9-0.5-4.7-1.9c-0.1-0.1-0.1-0.3-0.1-0.4c0-0.4,0.3-0.7,0.7-0.7c0.1,0,0.4,0.1,0.5,0.3
			c0.9,1.1,2.4,1.3,3.6,1.3c2.3,0,3.5-0.8,3.5-2.3c0-3.6-7.9-1.7-7.9-6.5c0-2.4,2.4-3.4,4.6-3.4c1.2,0,3.2,0.4,4.1,1.4
			c0.1,0.1,0.2,0.3,0.2,0.5c0,0.4-0.4,0.7-0.7,0.7c-0.1,0-0.3,0-0.5-0.2c-0.7-0.7-2.1-1-3.1-1c-2.1,0-3.2,0.8-3.2,2
			c0,3.4,7.9,1.6,7.9,6.5C93.6,70.7,91.2,71.7,88.7,71.7z"/>
		<path d="M107.4,59.6c-2.3,0-4.1,1.8-4.1,4.1v6.8c0,0.4-0.4,0.7-0.7,0.7c-0.3,0-0.7-0.2-0.7-0.7V59.1c0-0.4,0.4-0.7,0.7-0.7
			c0.3,0,0.7,0.2,0.7,0.7v1c1.1-1.2,2.5-1.8,4.1-1.8c0.4,0,0.7,0.4,0.7,0.7C108.1,59.3,107.9,59.6,107.4,59.6z"/>
		<path d="M120.2,65.5h-10c0.2,2.7,2,4.7,4.6,4.7c1.3,0,2.8-0.6,3.5-1.7c0.2-0.3,0.4-0.3,0.6-0.3c0.4,0,0.7,0.3,0.7,0.6
			c0,0.2,0,0.3-0.5,0.8c-1.1,1.3-2.7,1.9-4.4,1.9c-3.9,0-6-3.2-6-6.8c0-3.6,2.2-6.8,6-6.8s6,3.2,6,6.8
			C120.8,65.2,120.5,65.5,120.2,65.5z M114.8,59.4c-2.9,0-4.4,2.2-4.6,4.7h9.2C119.2,61.4,117.4,59.4,114.8,59.4z"/>
		<path d="M122.3,76.3c-0.1,0-0.2,0-0.3,0c-0.4,0-0.7-0.4-0.7-0.7c0-0.3,0.1-0.5,0.5-0.6c0.9-0.4,1.8-1.2,1.8-2.8V59.1
			c0-0.4,0.3-0.7,0.7-0.7c0.3,0,0.7,0.2,0.7,0.7v13.1C125,74.5,123.6,75.8,122.3,76.3z M124.4,56.2c-0.8,0-1.4-0.6-1.4-1.4
			c0-0.8,0.6-1.4,1.4-1.4c0.7,0,1.4,0.6,1.4,1.4C125.7,55.6,125.1,56.2,124.4,56.2z"/>
		<path d="M139.3,65.5h-10c0.2,2.7,2,4.7,4.6,4.7c1.3,0,2.8-0.6,3.5-1.7c0.2-0.3,0.4-0.3,0.6-0.3c0.4,0,0.7,0.3,0.7,0.6
			c0,0.2,0,0.3-0.5,0.8c-1.1,1.3-2.7,1.9-4.4,1.9c-3.9,0-6-3.2-6-6.8c0-3.6,2.2-6.8,6-6.8s6,3.2,6,6.8
			C139.9,65.2,139.6,65.5,139.3,65.5z M133.9,59.4c-2.9,0-4.4,2.2-4.6,4.7h9.2C138.3,61.4,136.5,59.4,133.9,59.4z"/>
		<path d="M152.6,69.8c-1.1,1.2-2.5,1.8-4.3,1.8c-3.9,0-6-3.2-6-6.8c0-3.6,2.2-6.8,6-6.8c1.8,0,3.2,0.6,4.3,1.8
			c0.1,0.1,0.2,0.3,0.2,0.5c0,0.4-0.3,0.7-0.7,0.7c-0.2,0-0.3-0.1-0.5-0.2c-0.8-0.9-1.9-1.4-3.3-1.4c-2.8,0-4.7,2.3-4.7,5.4
			s1.8,5.4,4.7,5.4c1.4,0,2.5-0.5,3.3-1.4c0.2-0.2,0.3-0.2,0.5-0.2c0.4,0,0.7,0.3,0.7,0.7C152.7,69.5,152.7,69.6,152.6,69.8z"/>
		<path d="M160,71.2h-0.7c-1.9,0-2.8-0.9-2.8-2.8v-8.6h-1.2c-0.4,0-0.7-0.4-0.7-0.7c0-0.3,0.2-0.7,0.7-0.7h1.2v-3.7
			c0-0.4,0.4-0.7,0.7-0.7s0.7,0.2,0.7,0.7v3.7h2.2c0.4,0,0.7,0.4,0.7,0.7c0,0.3-0.2,0.7-0.7,0.7h-2.2v8.6c0,1.2,0.3,1.4,1.5,1.4h0.7
			c0.4,0,0.7,0.4,0.7,0.7C160.7,70.8,160.4,71.2,160,71.2z"/>
		<path d="M173.7,65.5h-10c0.2,2.7,2,4.7,4.6,4.7c1.3,0,2.8-0.6,3.5-1.7c0.2-0.3,0.4-0.3,0.6-0.3c0.4,0,0.7,0.3,0.7,0.6
			c0,0.2,0,0.3-0.5,0.8c-1.1,1.3-2.7,1.9-4.4,1.9c-3.9,0-6-3.2-6-6.8c0-3.6,2.2-6.8,6-6.8s6,3.2,6,6.8
			C174.4,65.2,174,65.5,173.7,65.5z M168.3,59.4c-2.9,0-4.4,2.2-4.6,4.7h9.2C172.8,61.4,171,59.4,168.3,59.4z"/>
		<path d="M188,71.2c-0.3,0-0.7-0.2-0.7-0.7v-1.2c-1,1.4-2.6,2.3-4.7,2.3c-3.9,0-6-3.2-6-6.8c0-3.6,2.2-6.8,6-6.8
			c2.1,0,3.6,0.9,4.7,2.3v-5.5c0-0.4,0.4-0.7,0.7-0.7c0.3,0,0.7,0.2,0.7,0.7v15.7C188.7,71,188.4,71.2,188,71.2z M182.7,59.4
			c-2.8,0-4.7,2.3-4.7,5.4s1.8,5.4,4.7,5.4c2.9,0,4.7-2.3,4.7-5.4S185.6,59.4,182.7,59.4z"/>
		<path d="M193.1,73.3c-0.1,0.1-0.2,0.1-0.4,0.1c-0.4,0-0.6-0.3-0.6-0.7c0-0.7,1-0.8,1.2-1.5c-0.7,0-1.3-0.6-1.3-1.4
			c0-0.8,0.7-1.4,1.4-1.4c1.2,0,1.4,1.2,1.4,1.9C194.8,71.6,194.2,72.7,193.1,73.3z"/>
		<path d="M206.5,71.4c-1.3,0-2.4-1.2-2.4-2.5v-14c0-0.4,0.4-0.7,0.7-0.7c0.3,0,0.7,0.2,0.7,0.7v14c0,1.5,1.7,0.6,1.7,1.7
			C207.2,70.9,206.9,71.4,206.5,71.4z"/>
		<path d="M221.9,71.2L221.9,71.2c-0.8,0-1.9-0.4-2.4-1.9c-1,1.4-2.6,2.3-4.7,2.3c-3.9,0-6-3.2-6-6.8c0-3.6,2.2-6.8,6-6.8
			c2.1,0,3.6,0.9,4.7,2.3v-1.2c0-0.4,0.3-0.7,0.7-0.7c0.3,0,0.7,0.2,0.7,0.7v9.7c0,1.5,1.7,0.6,1.7,1.7
			C222.6,70.8,222.4,71.2,221.9,71.2z M214.8,59.4c-2.8,0-4.7,2.3-4.7,5.4s1.8,5.4,4.7,5.4c2.9,0,4.7-2.3,4.7-5.4
			S217.7,59.4,214.8,59.4z"/>
		<path d="M229.2,71.2h-0.7c-1.9,0-2.8-0.9-2.8-2.8v-8.6h-1.2c-0.4,0-0.7-0.4-0.7-0.7c0-0.3,0.2-0.7,0.7-0.7h1.2v-3.7
			c0-0.4,0.4-0.7,0.7-0.7s0.7,0.2,0.7,0.7v3.7h2.2c0.4,0,0.7,0.4,0.7,0.7c0,0.3-0.2,0.7-0.7,0.7H227v8.6c0,1.2,0.3,1.4,1.5,1.4h0.7
			c0.4,0,0.7,0.4,0.7,0.7C229.8,70.8,229.6,71.2,229.2,71.2z"/>
		<path d="M242.8,65.5h-10c0.2,2.7,2,4.7,4.6,4.7c1.3,0,2.8-0.6,3.5-1.7c0.2-0.3,0.4-0.3,0.6-0.3c0.4,0,0.7,0.3,0.7,0.6
			c0,0.2,0,0.3-0.5,0.8c-1.1,1.3-2.7,1.9-4.4,1.9c-3.9,0-6-3.2-6-6.8c0-3.6,2.2-6.8,6-6.8c3.9,0,6,3.2,6,6.8
			C243.5,65.2,243.2,65.5,242.8,65.5z M237.5,59.4c-2.9,0-4.4,2.2-4.6,4.7h9.2C241.9,61.4,240.1,59.4,237.5,59.4z"/>
		<path d="M251.8,59.6c-2.3,0-4.1,1.8-4.1,4.1v6.8c0,0.4-0.4,0.7-0.7,0.7c-0.3,0-0.7-0.2-0.7-0.7V59.1c0-0.4,0.4-0.7,0.7-0.7
			c0.3,0,0.7,0.2,0.7,0.7v1c1.1-1.2,2.5-1.8,4.1-1.8c0.4,0,0.7,0.4,0.7,0.7C252.5,59.3,252.3,59.6,251.8,59.6z"/>
		<path d="M266.2,71.6c-2.1,0-3.6-0.9-4.7-2.3v6.2c0,0.4-0.4,0.7-0.7,0.7c-0.3,0-0.7-0.3-0.7-0.7V59.1c0-0.4,0.4-0.7,0.7-0.7
			c0.3,0,0.7,0.2,0.7,0.7v1.2c1-1.4,2.6-2.3,4.7-2.3c3.9,0,6,3.2,6,6.8C272.2,68.5,270.1,71.6,266.2,71.6z M266.2,59.4
			c-2.9,0-4.7,2.3-4.7,5.4s1.8,5.4,4.7,5.4c2.9,0,4.7-2.3,4.7-5.4S269,59.4,266.2,59.4z"/>
		<path d="M280.5,59.6c-2.3,0-4.1,1.8-4.1,4.1v6.8c0,0.4-0.4,0.7-0.7,0.7c-0.3,0-0.7-0.2-0.7-0.7V59.1c0-0.4,0.4-0.7,0.7-0.7
			c0.3,0,0.7,0.2,0.7,0.7v1c1.1-1.2,2.5-1.8,4.1-1.8c0.4,0,0.7,0.4,0.7,0.7C281.2,59.3,281,59.6,280.5,59.6z"/>
		<path d="M288.5,71.6c-3.9,0-6-3.2-6-6.8c0-3.6,2.2-6.8,6-6.8s6,3.2,6,6.8C294.5,68.5,292.3,71.6,288.5,71.6z M288.5,59.4
			c-2.8,0-4.7,2.3-4.7,5.4s1.8,5.4,4.7,5.4c2.9,0,4.7-2.3,4.7-5.4S291.3,59.4,288.5,59.4z"/>
		<path d="M307.1,59.4l-4.7,11.3c-0.1,0.3-0.4,0.6-0.7,0.6c-0.3,0-0.6-0.2-0.7-0.6l-4.7-11.2c0-0.1,0-0.2,0-0.3
			c0-0.4,0.3-0.6,0.7-0.6c0.2,0,0.5,0.1,0.6,0.4l4.2,9.9l4.2-9.9c0.1-0.3,0.4-0.4,0.6-0.4c0.4,0,0.7,0.3,0.7,0.6
			C307.2,59.2,307.2,59.3,307.1,59.4z"/>
		<path d="M320.4,65.5h-10c0.2,2.7,2,4.7,4.6,4.7c1.3,0,2.8-0.6,3.5-1.7c0.2-0.3,0.4-0.3,0.6-0.3c0.4,0,0.7,0.3,0.7,0.6
			c0,0.2,0,0.3-0.5,0.8c-1.1,1.3-2.7,1.9-4.4,1.9c-3.9,0-6-3.2-6-6.8c0-3.6,2.2-6.8,6-6.8c3.9,0,6,3.2,6,6.8
			C321,65.2,320.7,65.5,320.4,65.5z M315,59.4c-2.9,0-4.4,2.2-4.6,4.7h9.2C319.4,61.4,317.6,59.4,315,59.4z"/>
		<path d="M334.2,71.2c-0.3,0-0.7-0.2-0.7-0.7v-7c0-2.3-1.8-4.1-4.1-4.1c-2.3,0-4.1,1.8-4.1,4.1v7c0,0.4-0.4,0.7-0.7,0.7
			c-0.3,0-0.7-0.2-0.7-0.7V59.1c0-0.4,0.4-0.7,0.7-0.7c0.3,0,0.7,0.2,0.7,0.7v0.8c1.1-1.2,2.5-1.8,4.1-1.8c3,0,5.5,2.5,5.5,5.5v7
			C334.8,71,334.5,71.2,334.2,71.2z"/>
		<path d="M353.7,69.8c-1.1,1.2-2.5,1.8-4.3,1.8c-3.9,0-6-3.2-6-6.8c0-3.6,2.2-6.8,6-6.8c1.8,0,3.2,0.6,4.3,1.8
			c0.1,0.1,0.2,0.3,0.2,0.5c0,0.4-0.3,0.7-0.7,0.7c-0.2,0-0.3-0.1-0.5-0.2c-0.8-0.9-1.9-1.4-3.3-1.4c-2.8,0-4.7,2.3-4.7,5.4
			s1.8,5.4,4.7,5.4c1.4,0,2.5-0.5,3.3-1.4c0.2-0.2,0.3-0.2,0.5-0.2c0.4,0,0.7,0.3,0.7,0.7C353.9,69.5,353.8,69.6,353.7,69.8z"/>
		<path d="M362.2,71.6c-3.9,0-6-3.2-6-6.8c0-3.6,2.2-6.8,6-6.8s6,3.2,6,6.8C368.2,68.5,366.1,71.6,362.2,71.6z M362.2,59.4
			c-2.8,0-4.7,2.3-4.7,5.4s1.8,5.4,4.7,5.4c2.9,0,4.7-2.3,4.7-5.4S365.1,59.4,362.2,59.4z"/>
		<path d="M376.6,59.6c-2.3,0-4.1,1.8-4.1,4.1v6.8c0,0.4-0.4,0.7-0.7,0.7c-0.3,0-0.7-0.2-0.7-0.7V59.1c0-0.4,0.4-0.7,0.7-0.7
			c0.3,0,0.7,0.2,0.7,0.7v1c1.1-1.2,2.5-1.8,4.1-1.8c0.4,0,0.7,0.4,0.7,0.7C377.3,59.3,377,59.6,376.6,59.6z"/>
		<path d="M384.5,59.6c-2.3,0-4.1,1.8-4.1,4.1v6.8c0,0.4-0.4,0.7-0.7,0.7c-0.3,0-0.7-0.2-0.7-0.7V59.1c0-0.4,0.4-0.7,0.7-0.7
			c0.3,0,0.7,0.2,0.7,0.7v1c1.1-1.2,2.5-1.8,4.1-1.8c0.4,0,0.7,0.4,0.7,0.7C385.2,59.3,384.9,59.6,384.5,59.6z"/>
		<path d="M397.2,65.5h-10c0.2,2.7,2,4.7,4.6,4.7c1.3,0,2.8-0.6,3.5-1.7c0.2-0.3,0.4-0.3,0.6-0.3c0.4,0,0.7,0.3,0.7,0.6
			c0,0.2,0,0.3-0.5,0.8c-1.1,1.3-2.7,1.9-4.4,1.9c-3.9,0-6-3.2-6-6.8c0-3.6,2.2-6.8,6-6.8s6,3.2,6,6.8
			C397.9,65.2,397.5,65.5,397.2,65.5z M391.8,59.4c-2.9,0-4.4,2.2-4.6,4.7h9.2C396.3,61.4,394.5,59.4,391.8,59.4z"/>
		<path d="M410.5,69.8c-1.1,1.2-2.5,1.8-4.3,1.8c-3.9,0-6-3.2-6-6.8c0-3.6,2.2-6.8,6-6.8c1.8,0,3.2,0.6,4.3,1.8
			c0.1,0.1,0.2,0.3,0.2,0.5c0,0.4-0.3,0.7-0.7,0.7c-0.2,0-0.3-0.1-0.5-0.2c-0.8-0.9-1.9-1.4-3.3-1.4c-2.8,0-4.7,2.3-4.7,5.4
			s1.8,5.4,4.7,5.4c1.4,0,2.5-0.5,3.3-1.4c0.2-0.2,0.3-0.2,0.5-0.2c0.4,0,0.7,0.3,0.7,0.7C410.7,69.5,410.6,69.6,410.5,69.8z"/>
		<path d="M418,71.2h-0.7c-1.9,0-2.8-0.9-2.8-2.8v-8.6h-1.2c-0.4,0-0.7-0.4-0.7-0.7c0-0.3,0.2-0.7,0.7-0.7h1.2v-3.7
			c0-0.4,0.4-0.7,0.7-0.7s0.7,0.2,0.7,0.7v3.7h2.2c0.4,0,0.7,0.4,0.7,0.7c0,0.3-0.2,0.7-0.7,0.7h-2.2v8.6c0,1.2,0.3,1.4,1.5,1.4h0.7
			c0.4,0,0.7,0.4,0.7,0.7C418.6,70.8,418.4,71.2,418,71.2z"/>
	</g>
</g>
</svg>
